<mxfile host="Electron" agent="Mozilla/5.0 (Windows NT 10.0; Win64; x64) AppleWebKit/537.36 (KHTML, like Gecko) draw.io/28.0.4 Chrome/138.0.7204.97 Electron/37.2.1 Safari/537.36" version="28.0.4">
  <diagram name="Seite-1" id="qXatMxvrVlP37w61aXQn">
    <mxGraphModel dx="1683" dy="686" grid="1" gridSize="10" guides="1" tooltips="1" connect="1" arrows="1" fold="1" page="1" pageScale="1" pageWidth="827" pageHeight="1169" math="0" shadow="0">
      <root>
        <mxCell id="0" />
        <mxCell id="1" parent="0" />
        <mxCell id="bDEAGJGz-RoX0q3UjHod-6" value="«component»&lt;br&gt;&lt;b&gt;Guided Domain Solver&lt;/b&gt;" style="html=1;dropTarget=0;whiteSpace=wrap;verticalAlign=top;strokeWidth=2;fillColor=none;" vertex="1" parent="1">
          <mxGeometry x="460" y="240" width="450" height="310" as="geometry" />
        </mxCell>
        <mxCell id="bDEAGJGz-RoX0q3UjHod-7" value="" style="shape=module;jettyWidth=8;jettyHeight=4;" vertex="1" parent="bDEAGJGz-RoX0q3UjHod-6">
          <mxGeometry x="1" width="20" height="20" relative="1" as="geometry">
            <mxPoint x="-27" y="7" as="offset" />
          </mxGeometry>
        </mxCell>
        <mxCell id="bDEAGJGz-RoX0q3UjHod-12" value="" style="rounded=0;orthogonalLoop=1;jettySize=auto;html=1;endArrow=oval;endFill=0;sketch=0;sourcePerimeterSpacing=0;targetPerimeterSpacing=0;endSize=10;strokeWidth=2;" edge="1" parent="1" source="bDEAGJGz-RoX0q3UjHod-15">
          <mxGeometry relative="1" as="geometry">
            <mxPoint x="310" y="330" as="sourcePoint" />
            <mxPoint x="410" y="335" as="targetPoint" />
          </mxGeometry>
        </mxCell>
        <mxCell id="bDEAGJGz-RoX0q3UjHod-37" value="" style="edgeStyle=orthogonalEdgeStyle;rounded=0;orthogonalLoop=1;jettySize=auto;html=1;curved=0;strokeWidth=2;endArrow=open;endFill=0;" edge="1" parent="1" source="bDEAGJGz-RoX0q3UjHod-15" target="bDEAGJGz-RoX0q3UjHod-16">
          <mxGeometry relative="1" as="geometry" />
        </mxCell>
        <mxCell id="bDEAGJGz-RoX0q3UjHod-15" value="" style="html=1;points=[[0,0,0,0,5],[0,1,0,0,-5],[1,0,0,0,5],[1,1,0,0,-5]];perimeter=orthogonalPerimeter;outlineConnect=0;targetShapes=umlLifeline;portConstraint=eastwest;newEdgeStyle={&quot;curved&quot;:0,&quot;rounded&quot;:0};strokeWidth=2;" vertex="1" parent="1">
          <mxGeometry x="450" y="315" width="20" height="40" as="geometry" />
        </mxCell>
        <mxCell id="bDEAGJGz-RoX0q3UjHod-41" value="" style="edgeStyle=orthogonalEdgeStyle;rounded=0;orthogonalLoop=1;jettySize=auto;html=1;strokeWidth=2;endArrow=open;endFill=0;" edge="1" parent="1" source="bDEAGJGz-RoX0q3UjHod-16" target="bDEAGJGz-RoX0q3UjHod-18">
          <mxGeometry relative="1" as="geometry" />
        </mxCell>
        <mxCell id="bDEAGJGz-RoX0q3UjHod-49" value="" style="edgeStyle=orthogonalEdgeStyle;rounded=0;orthogonalLoop=1;jettySize=auto;html=1;entryX=0.5;entryY=0;entryDx=0;entryDy=0;strokeWidth=2;endArrow=open;endFill=0;" edge="1" parent="1" source="bDEAGJGz-RoX0q3UjHod-16" target="bDEAGJGz-RoX0q3UjHod-22">
          <mxGeometry relative="1" as="geometry" />
        </mxCell>
        <mxCell id="bDEAGJGz-RoX0q3UjHod-16" value="«subsystem»&lt;br&gt;&lt;b&gt;Monte Carlo &lt;br&gt;Tree Search&lt;/b&gt;" style="html=1;dropTarget=0;whiteSpace=wrap;strokeWidth=2;fillColor=none;" vertex="1" parent="1">
          <mxGeometry x="500" y="300" width="130" height="70" as="geometry" />
        </mxCell>
        <mxCell id="bDEAGJGz-RoX0q3UjHod-17" value="" style="shape=module;jettyWidth=8;jettyHeight=4;" vertex="1" parent="bDEAGJGz-RoX0q3UjHod-16">
          <mxGeometry x="1" width="20" height="20" relative="1" as="geometry">
            <mxPoint x="-27" y="7" as="offset" />
          </mxGeometry>
        </mxCell>
        <mxCell id="bDEAGJGz-RoX0q3UjHod-38" value="" style="edgeStyle=orthogonalEdgeStyle;rounded=0;orthogonalLoop=1;jettySize=auto;html=1;endArrow=open;endFill=0;strokeWidth=2;" edge="1" parent="1" source="bDEAGJGz-RoX0q3UjHod-18" target="bDEAGJGz-RoX0q3UjHod-24">
          <mxGeometry relative="1" as="geometry" />
        </mxCell>
        <mxCell id="bDEAGJGz-RoX0q3UjHod-18" value="«subsystem»&lt;br&gt;&lt;b&gt;Agents&lt;/b&gt;" style="html=1;dropTarget=0;whiteSpace=wrap;strokeWidth=2;fillColor=none;" vertex="1" parent="1">
          <mxGeometry x="720" y="300" width="130" height="70" as="geometry" />
        </mxCell>
        <mxCell id="bDEAGJGz-RoX0q3UjHod-19" value="" style="shape=module;jettyWidth=8;jettyHeight=4;" vertex="1" parent="bDEAGJGz-RoX0q3UjHod-18">
          <mxGeometry x="1" width="20" height="20" relative="1" as="geometry">
            <mxPoint x="-27" y="7" as="offset" />
          </mxGeometry>
        </mxCell>
        <mxCell id="bDEAGJGz-RoX0q3UjHod-39" value="" style="edgeStyle=orthogonalEdgeStyle;rounded=0;orthogonalLoop=1;jettySize=auto;html=1;endArrow=open;endFill=0;strokeWidth=2;" edge="1" parent="1" source="bDEAGJGz-RoX0q3UjHod-20" target="bDEAGJGz-RoX0q3UjHod-25">
          <mxGeometry relative="1" as="geometry" />
        </mxCell>
        <mxCell id="bDEAGJGz-RoX0q3UjHod-47" value="" style="edgeStyle=orthogonalEdgeStyle;rounded=0;orthogonalLoop=1;jettySize=auto;html=1;entryX=1;entryY=0.5;entryDx=0;entryDy=0;strokeWidth=2;endArrow=open;endFill=0;" edge="1" parent="1" source="bDEAGJGz-RoX0q3UjHod-20" target="bDEAGJGz-RoX0q3UjHod-22">
          <mxGeometry relative="1" as="geometry">
            <Array as="points">
              <mxPoint x="670" y="475" />
              <mxPoint x="670" y="475" />
            </Array>
          </mxGeometry>
        </mxCell>
        <mxCell id="bDEAGJGz-RoX0q3UjHod-20" value="«subsystem»&lt;br&gt;&lt;b&gt;Knowledge Graph&lt;/b&gt;" style="html=1;dropTarget=0;whiteSpace=wrap;strokeWidth=2;fillColor=none;" vertex="1" parent="1">
          <mxGeometry x="720" y="440" width="130" height="70" as="geometry" />
        </mxCell>
        <mxCell id="bDEAGJGz-RoX0q3UjHod-21" value="" style="shape=module;jettyWidth=8;jettyHeight=4;" vertex="1" parent="bDEAGJGz-RoX0q3UjHod-20">
          <mxGeometry x="1" width="20" height="20" relative="1" as="geometry">
            <mxPoint x="-27" y="7" as="offset" />
          </mxGeometry>
        </mxCell>
        <mxCell id="bDEAGJGz-RoX0q3UjHod-22" value="«subsystem»&lt;br&gt;&lt;b&gt;Environment&lt;/b&gt;" style="html=1;dropTarget=0;whiteSpace=wrap;strokeWidth=2;fillColor=none;" vertex="1" parent="1">
          <mxGeometry x="500" y="440" width="130" height="70" as="geometry" />
        </mxCell>
        <mxCell id="bDEAGJGz-RoX0q3UjHod-23" value="" style="shape=module;jettyWidth=8;jettyHeight=4;" vertex="1" parent="bDEAGJGz-RoX0q3UjHod-22">
          <mxGeometry x="1" width="20" height="20" relative="1" as="geometry">
            <mxPoint x="-27" y="7" as="offset" />
          </mxGeometry>
        </mxCell>
        <mxCell id="bDEAGJGz-RoX0q3UjHod-24" value="" style="html=1;points=[[0,0,0,0,5],[0,1,0,0,-5],[1,0,0,0,5],[1,1,0,0,-5]];perimeter=orthogonalPerimeter;outlineConnect=0;targetShapes=umlLifeline;portConstraint=eastwest;newEdgeStyle={&quot;curved&quot;:0,&quot;rounded&quot;:0};strokeWidth=2;" vertex="1" parent="1">
          <mxGeometry x="900" y="315" width="20" height="40" as="geometry" />
        </mxCell>
        <mxCell id="bDEAGJGz-RoX0q3UjHod-25" value="" style="html=1;points=[[0,0,0,0,5],[0,1,0,0,-5],[1,0,0,0,5],[1,1,0,0,-5]];perimeter=orthogonalPerimeter;outlineConnect=0;targetShapes=umlLifeline;portConstraint=eastwest;newEdgeStyle={&quot;curved&quot;:0,&quot;rounded&quot;:0};strokeWidth=2;" vertex="1" parent="1">
          <mxGeometry x="900" y="455" width="20" height="40" as="geometry" />
        </mxCell>
        <mxCell id="bDEAGJGz-RoX0q3UjHod-26" value="" style="shape=image;verticalLabelPosition=bottom;labelBackgroundColor=default;verticalAlign=top;aspect=fixed;imageAspect=0;image=data:image/png,iVBORw0KGgoAAAANSUhEUgAAA0IAAAE5CAYAAAC9JJBfAAAACXBIWXMAAC4jAAAuIwF4pT92AAAgAElEQVR4nO3d3VFbydbG8W7V3OMTAUwEaCKwHIE1EYAjMK7SveFeVcYRWERgiMAQgVEEY0UwJgH1qdasbW9jPqT9tVZ3/39V1JzzvmdgS2y0++levdqHEBwAAAAAlGTEbxsAAABAaQhCAAAAAIpDEAIAAABQHIIQAAAAgOIQhAAAAAAUhyAEAAAAoDgEIQAAAADFIQgBAAAAKA5BCAAAAEBxCEIAAAAAikMQAgAAAFAcghAAAACA4hCEAAAAABSHIAQAAACgOAQhAAAAAMUhCAEAAAAoDkEIAAAAQHEIQgAAAACKQxACAAAAUByCEAAAAIDiEIQAAAAAFIcgBAAAAKA4f/ArBwAAANDGaO7GzrmJfL1wzr185NstnXPfnXPX8Ws92/xThQ8h8EsHAAAAsJPR3B04506cc1Pn3H7Dd+/OOXfpnFsMHYoIQgAAAAC2NppvVn1On1j1aWoVv+965hZD/DYIQgAAAACeNZpvSt7OnXNHPb9bN3GlaT1zt33+EJolAAAAAHjSaL4pf/s2QAhystL0dTTfrDr1hhUhAAAAAI8azTerQG+V3qG4OjRdzzYNFjpFEAIAAADwoNF8s19niFWgp8ROc5OuwxClcQAAAAB+YyQERYex1bbsUeoMQQgAAADALwyFoErnYYggBAAAAOCH0XxzNpClEFSJYaiz1trsEQIAAACwMZq7cezYZvzdeLeebRo4tMKKEAAAAIDKIIeZtnQ6mruDtt+EIAQAAACgKok7TOCd2IthqO03oTQOAAAAKJw0IfgmISMVr9Yzd930WlkRAgAAAHCcWAhycs2NEYQAAAAAnCT4Dhy12StEEAIAAAAKJp3i9hN9B6ZN/0WCEAAAAFC2ViVmyhpfO0EIAAAAKNsk4Vd/KI0edkYQAgAAAMqWQsvsp4yb/EsEIQAAAKBQo3nSq0GVRq+BIAQAAACUq3HXNUMavQaCEAAAAFAughAAAAAAlIIgBAAAAKA4BCEAAAAAxSEIAQAAACgOQQgAAAAo1/cMXvm3Jv8SQQgAAAAo120Gr5wgBAAAAGAnOQShRq+BIAQAAAAUaj3blMatEn/1BCEAAAAAO7tO+C1brWeUxgEAAADY3WXC71njaycIAQAAAAVbzzZh4i7Rd+C86b9IEAIAAADQOFAoumlaFhf9UfyvHAAAAFnw3r9wzo3l60D+WXkp/7y7t7n+WtovfwshpLxXpq2Fc+59Ytd82uZf9iGE7i4FAAAAGJD3PoadY+fcxDl32MFPvpF9J9chhBxaS29tNN8Ei1TCUFwNmrT5BgQhAAAAJMV7H1d7TpxzU+fcfo/XvpKVkkUIoXEJVipGc/dCVsf2ErjkV+tZu253BCEAAAAkwXs/kQD0WuF6LyQQZV0+N5pvwuVnA5fylI/r2eY+aIUgBAAAANNkBehcKQDdF0vnTnIumxvNN6tgRwYu5SHL9eyXvV+N0TUOAAAAZnnv476Vf4yEICdNF7567xfSnCE769lmz9XS4Ou6k3LIThCEAAAAYE5sguC9vzW8eT+umHzz3nc2MDdmYiwMxRA0adMu+z6CEAAAAEzx3scVia8ddYHrU2wq8DnH1aH1zH03FIaqENRpOSJ7hAAAAGBGDBWG96c8JQaGSQjhu91L3J10krusncM0tNi5b9p1CHIEIQAAAFggKyoLQ3uBmriTMJRdI4XRfNOs4u3AP/YqnhElq1OdIwgBAABAlYSg6wRK4baRcxiaSFjt8+wmJ+/hyXq2+Vm9IQgBAABAlTRFyCEEVbINQ+6/QBT3cJ32EIjupE36eV+rQHUEIQAAAKhJeE/Qc+KgfhxC6KzLmTUSiI472D+0kgC0GCIAVQhCAAAAUCFnBFltj92FLBso3DeauwPpMBdbiY+3WCmKIfFWmjBc99EIYRsEIQAAAAxOzt/5XMA7fxFCODZwHYMazTeB6LeW4uvZZi+YCQQhAAAADMp7fyArAnuFvPNvQgi9bvzH7ghCAAAAGFSGzRGek/1+oRSNSn8DAAAAMBzv/XlhIcjJyte5getADStCAAAAGERB+4Ie8yqEYGaPTOkIQgAAAOid934sh6aWsi/oITchhIm9yyoTpXEAAADolfc+dg9bFB6Copfee4KQEawIoXMy4/NC+sk76SdftU88aHEKcezFX/Xhv5X//K36YgMidiEdiw5q92f1353835o8rFdyP7oH7tHb3M+RwHBkIPVC7lVX+7x1DQ82rN+71T37Xe5jPl/RWsaHpjbBqpARBCE0JgPJsXxNWoacrtzUHuLX1OHC/Rw0TmrBR3OT7k01uJR7VOUQOaRBJpbuf2nNqC/r9y7hHtvy3sczdD7xhv3iTyYY9BGEsDV5IFcDym1ODbZiKQ/taxl48uDOmJRfTGpfKXQmuqndn4T3gtVC+6TFyuSQ+HzFk9gX9KiPIYQTo9dWDIIQniTdXabyUE4l+DwnPrgv4xez8XmQB211r+bQkvVKBg6XzBjmTYJ7/XM29cEin6/4Qe7v24zGD11ahRAOhvtxeAhBCL+phZ9pATM4K3loL3hop0XCz7Hcpzk/ZJeywZhQlAkZHB7LV85nqfD5Wjjvffz9vy79fXjCX/xt6CIIYUP2+5zIg7nU5euVHHa2oLzDJrlPp3KvljjDeCWBaGHgWrAj2ScxLXRguJJAvyDQl8F7Hz+nP5T+PjzjLIRwavoKa7z38VrfD/xje32PaJ9duLj6472PJTj/OOfeFl7Duy8f2v/G7jYy6IYBcd+EzCz+I7+jUsss4gD6k/f+ezyZnXvUvvg7ioOH+DuTzeKlzo7vywDqn/i3TPvgvMmKPSHoefwdKCMIFSrOTHrvv8npzk1arebuSB7Y1zyw9dTu0y+UV/xiTyYu/pHQPt7h38UA4u9E2gX/IwGAjeI/xb/lL/FvW1bJkBEp/bw09orunHMXzrk3zrlX8s+PslKpifGXMoJQYWoDy09sXtzKS3lgE4gGxH26kxjav3KP2iCrl3GV/StnpjxrX1Y4CUR5uTT2uR0D0EEI4TiWFcfOnPLPE2lW8E6CkgomsnQRhAohD+dbBpaNVYGIkrkeEYBaqYd27tGBSQnctaxeMsu7GwJRJmQPiaX7/0IC0KP7fkMI51KiphWG+LxWRBDKnDycL+XhnHN3oqFUJXPJbG5MAUG9Uy9rJXMvMnpdJsX3uFYCRwBqpx6IWN1MjPzOht5I/5SrGIK2+R9K5zatEM6KkCKCUMakY8steyt68Z6HdXsE9V7F0P5NPgfQA5kQ+UYJXOf2Wd1Mi8F9Qatdg00I4VKOKxgaE1aKCEIZqpVofGCDbq+qh/V5xq+xNwT1QcS//w9xtY069O7UVjBpgtCvl6zAJ+Pa2N/CtOExGBpHE/DZrIgglBk5DPWWEo1BvWWguT3ppnVLUB/UoTRUYEDZgpTBnbOCObj3fMbaJX8Tlv4e3rU4pJTDTQtDEMqI1Kl/ZnCpIj4Ertno+zRZBbpmEKmmGlBSbrQjGYRfS9tyDI8wb5BMvlr6m7iS5gfAVghCGZBZylvq1NXtyUZfPoTvkXv0klUgE+KA8pbQvj0J8F8J8Ca8l71D7KtQJhMqGqVkj1kqNjxAoghCiZNZylse0Ka8lZPTeVD/eo+yF8iOKrRbGsSYcy/Aw46X0giEZjW6Lg1NbMXW10+2yQYeQhBKWK1Ug3bD9ryWUrmiw5CsOnzlHjXrSErlCO331D5fCfA27UmzGroiKpBJFEsTsCct9gWhYAShRMlMmLUuLfjVYclhSB6UnwxcCp5WlcqxEV3UPl9ZabfvAyubw5IJLkul+PHQVO4BNEIQSpB8CH0hBCWhuDBUO2CSPWvp2Jf7tPgwxOdrko7YNzQM+YywtA827gtiVRCNEYQSY/BDCM8rJgzJa7wmBCVpT7pyFbvZWF47q5hpekk5cr/kvV2wLwg5IQglpFazzkxlerIPQ7UQRDlR2j6VGIYo5cxC0eXIA7B2XhD7gtAaQSgR0qaSEJS2Q2OtRjtDCMpOUWGIUs6sEIZ6IE0p2BeE7BCEEiAf6JbaVKK517mdM0QIylYRYYgQlCXCUIekGsVSC/llCIHzgtAJglAarLWpRDtvcxlgEoKy90lOjs+SwVludIcw1IHaRKwVcV9Qtp9JGB5ByDjv/SnnWGTpPJMOXZeEoOwtcuwmJ5MRHJSaN8JQewtj58DF5gjfDFwHMvEHv0i7ZPDxPuOXGNtePtft5SDTwzj3ZIA5SbXjjZQUvTRwKX1axRPst/j+Ob8Pe1Vr7VwGILLKVUJjhG0+Y3P/G672ZrKKsCNZMbU0EfsxhGBpdQoZIAgZZXA5uqmbeFijDCY3/2w6mJJDDuP7Mq59pRyS4gP6NMUzEGSlMpeSomXtHo1lfi6EcN3kG8nf7VgCfPyaZBLmYxi6TDm4V2SCKadN1vc/Y7836aRVu3dz+oytbPZmhhA4b2ZL8ry1ti+I3x86RxCy6zTRB9BSAtx108HkY2rf70dAlIf3RGb7Jgm+Z3G/0GXX71WfZDY95ZXKGwk8fdyj36swVSddH8e1ezXFv+3kZ9YzaDxzV927cv921jr43r370Gdsyveuk8/aWzqNPY99QSiJDyHwCzdGZmK+JHTJSzlf4FJ7tlhme4/lK5XBTiy/Gqcw057wWVZX8mBXv0fdz2A0lfs0tT1W70IISXY+9N5fJ1gKdle7d9UHp4nfu/G9nHD2zNMM/p38PdS9rzT+ugkhTAb+mY1INcjQE6FnIYTTvr45zRJsSmHGKj5QLpxzf4YQ4iB+YWGAGR9wcfk8hBBntN7I7L91+ymUxxk8Vfw5S7kH/hdCmFq5R91/92ksEY2lOjFY/hlr3+VvKgUfUmyeIA/wlELQlQwAX8RWwVb2RiR+71YlnjRPeITBvxP2BaFXBCFj5EPIculBfOCdxX0P8nA2u3laBr5xluVVAoHovcy0WnaayAxwHEC+shTQnyIDy3p4X9m92h+SGkzKLG8q5ZzVBNPU+gAw0Xt3P9eDrdsyWPZ8w74g9I0gZIgMhC3/0X+UAHSa0obpuA+kFoiWBi7pMWYfzjKQfGvgUp5yVRtAJrPnqk6C20EC9+q+lMOaV1vJtK4KQEm2B67duykEotc5n4/VhIw/LP2dsC8IgyAI2XJqtOwoDsj+kpm/ZDtGSSCK5RzvjJZyvJTAYUoCHQyXsgI0zaW9c+1etTyoPEpkMGl9lf0q5QB0Xy0QWf2crSwSWIUfkrUmItPUO1QiDQQhI+QD2WI74jMpMcpmc6ls9B4bnXHvbUNgC+dGA/qdbNwfp7oC9BzpcDWW1ViLzi2XyBlfyVzlFuDr5HP2QFa6LNpLZVWzb7G1uLGy57NcP9NhD0HIDmsD4Dt5SFscmLcmte0WB5imVoXkWiwG9BvptJf9QCbOikqd/F8Gw/u+0fBuvSTuo9y/WQ/25N49llJPi6tDxZfIyeu3NFlwk+u4AzYRhAwwuBq0lL1A2c/IyADzjYFLqbP0ELA4kIyzhZMcZ9GfIquyE4Mz7G+NdpE7MVgSV00wJV1mvCt5lhxIGaA1i1K7yBk8XJh9QRgcQcgGSwPfpZyzUNJDemFsxtLEqpDBDoZZr1JuozbD/sbYDLuplTmZXLLWJW5ZwirQY+TencreIUv2Uji+oGtGj0NgXxAGRxBSJh9GVlaDigtBFRmcTAwNLlUfzHJfWhocVPcmdeM/w7ul+/WlsRIjayWTF3L/FrWK+RApZ/3bWJBP4fiCrlnbF/SOz3doIAjpszLYLDYEVWqlRxa8Vn4wW2qQsOQ0+N/V7lcr+4ZMhA9ZTX1t4FIqF9IRjpluIecjWQryzupetz5474+NleNflbDfEzYRhPQdG7iG4kNQRQaXVvYMqdwbxvascW8+wVgY2pcBljZLA9p3UsqIe2r3rpUwdGTx+IKuyb4gS6FjZWQchEIRhBRJKYn2Hoz4EGK2skbKjs4MXIrWw8HKQJIQtAV5f6yEIdV7RwayLzWvoeaMWe6nGQxDWa8K1c6EY18QIAhCuizU1B9TcvQ72ZB/o3wZ+0PvuzC0GrQiBG1P3qepgQGl9qqQlYHsBS2At2MsDJk81LpDC2MNcN4x/oA2gpASI00SPkqtNh5mYWA5dFi2MHi7Y5Zwd7IR38KAUuUeMrQadEE53G5kMGyl2UaWvzvv/YmxvXPsC4IJBCE92h/6q5I2hzYhA3Hth+Jg94mhDoasUjYk75t2A5bBVzKFhcYzyxJbMXdBOoZZ2J95lFsHOdkX9MHApVTYFwQzCEJ6tIMQ+4K2ICtmmocA7g04qLQwgGOVsiXZ4/ZR+TIGvZdk4Ko9281KZkty71o4MDibScLaviBL+DuBGQQhBfLBpPnQvqJf/060A8JQQUh7hm4ZT9xXvoYsyPuo2Tzh5cCz6hbum2POCeqE9r0bTeU5nYNLY/uC3rDiD0sIQjq0N2My2NyBDG40u8j1HoRkg7v2w5JSiW5pv59Dfs5ov1ZWMjtipCR5z9Cepca896eGuig62T+3MHAdwA8EIR2aH7AXzFo2cq64CX1Parz7pP3QP2OWsFvyfmoG+EEGsxLiNdsBs9+yYwbuXZf6hKE0D3lv4FIq7J+DSQQhHZorQjywG5BZSs0ON73dMwb2V6xoNdwPeV9XSj9+qP1t2qsH7LfsgfK9Gx0OMAHVC4P7gjivEGYRhAYmg06tEiRWg9rRXNLvc0CpvRrELGG/NINCr/eWfJ5qlv6w37Jf6iFX+ec3dW3s0NQTVvxhFUFoeJqrQfTsb0FCpFZHoz4He5oP+xv2VvRLBupahwP3HbIJ8RmTe1eza2dy+4S89/E5f2jgUirsC4JpBKHhaQWhJTMynVD7QO+jTENm1DUfmpTEDUPrfe67PE4zxLPCPgzNsLmfUnmc/K29NXApFfYFwTyC0PC0PlSZkemAzFBq1a33EaI1ZzxvKCsaRo6rQrIPghCfOeWVeJdKeZxMall6zrMvCEkgCA1P68FNEOqOVilXHyFas1STe3JYWgP3vsI23TfLoRk6tY+72NalsX1Bx1ShIAUEoQFJO0sNS2ZlOqU1gO8jCGl1i1tRNz4sxdXMvtq/awYhVoMGJKFTa0XzcODDgXfmvV8Y2xfEuVpIBkFoWJTFZUBmuTQGlJ0+6AZqbfwY7kkdWg1T+pgE0ppYumE1SEWWxxe0JedoHRm6pDjxyr4gJIMgNCytWSX2YXRP5T3teGadsrjyaL3vnYZu+TvQKgOi+6YCWWHIaX9ma/J3YOl+vEux0x7KRhAalsaK0Io63V5oLft3GaY1SzWZUVcgJbIa7Yi7bv+ude/eUfKjSuu9NxeEpFnIwuC+ID7bkRSC0LA0ghAhqB9aq2xd3kM07iiTymAyk9VMQpAurdWPfYP7hKydF8S+ICSJIDQsjZkbyuJ6IDPrGmUanTyMFRt3OAaT6nKYVdfab8m9q0hWG5ZKV2DmPCHv/Qn7goBuEIQGongoGytC/dF4b7ualdS6HymLUyYhXmMw2ck9JyVB+118rx1RFmdDDqvxjclY4oOFaxHsC0LSCELDeaHxQzmwslcEod1xP9qgMaBP/d4lBNmgVVqrvk9IJgGs3YdTJreQsj/47Q1GpVGC0mstRRzUvx/4tXY1E65V7z5VXB3FTxoTM101TNAakBLiDYjNf7z3dwql5hb2CC2UVkMfc8ZkK1JHEBqOxsCDWZp+pfz+dt3Fa1v7xh7kGFDccN7B7DHHEOBa4TBo1c8t2RekdQD2Q+J5WhwsjORRGpc3Htw90ioHaNvowPop6chaF/eexv17R/mPKSp7X7WazMjPZV8Q0AOC0HDMnkyNVlIsPyQIQUsXZZEapZVMKtmi9fsYvLLD8L6g7wauA2iNIJQ3Ht79S3GWmD060NLFQFLjGAK6b9qi9fvQ+Oy8NHZoKvuCkBWCEJCetis6Kh0MgbYDSY4hgPvZAv5O4c0Y9LPTe3+quJ/zIewLQnYIQkA7GjNjbYMQpXHQ0nYgqRXi2R9kj0Y4HSyIe++nCl1Jn8K+IGSJIDScwWd1WL7GIwhC0NI2yKjcu7Fls8bPxZOy/Z1IQxut85IeM2FfEHJEEAIADOWw5c8hxKOiMSgf6v6zti/oHZMByJXqOUKj+WaZdSwd1Q6e6NO/ktmf+HW9ntEEAGiBPULA9m54r0zSKFfs/Swh7/15BxMGXboKIZwbuh6gU4MHIQk/xzseDFYdwhj/nfej+aZWNc6YnK9nbGIFdmTpIQsATWS3b8t7H8dGbw1cSmUl4zUgW4OVxo3m7ng033xwfe7gdOS4ZHzknPs6mrvr0ZwzeqCG1UlgOJTGIUvSEdHaygvnBSF7vQehGFJG882qzaeelpVjE4Ivo7m7HM15SAKAZS1P59f4jGeyA72SQ1MX7AsChtdrEBrNXew3/2WgUpy4ynQbV54G+FkAAECPSmmcdHTrGvuCACW9BKHR3L2IJWsKPfDjbMqn0dxc20kAANCREILWHqFOg5DsCzrq8nu2tGRfEErSeRCKIUhKCTRPQz6SUjm6YwEAAHMM7guKjaiO2ReEknQahGohyMIS72vpLAcAAGCG7Auydl7QCfuCUJrOgpCxEFR5SZkcAAB5kSChoauSvPMhziXawUUIgfESitPlitDC6PkksUzuxMB1AACAbow13scu9iZ576cG9wUxTkKROglCEjTang3Upw+juc6HJgCgMxob5DmnDp2RlSz2BQFGtA5CcnbPaQK/UJZ8ASBtWp3CgK6cGCuJY18QitbFitC5sc1+jzmUc42A0i1LfwMAJC+5A9RlNchSCRr7glC8VkFoNN+UDFguibvvhJbagKMEAtgeZdU2aQShVct//8TQxDH7glA818GKUGp/RHscFAYAydIojUuh4qFEGpOaje8/Y6tBcV/QlH1BQIsgJHuDUloNqjADgtKxzwKpUrl35eBL2JLa7+TYUKg+7qL7HZCDNitC00Rf/z4d5FA4HoDAbpLbj1IAjd9Jm6YCViZhP4YQOGweEH+0eCNSLjE7ZmUIBdMqh7igeyPaDCZDCNfee433ME6eMXg0QsrMNDqvNfrslBVFC53iliEExj5ATaMgJA0HLB6eui3OhUDJtFqlvogDWe48tHSnUGJEFYEtWr+Ppp+dFiaO7xKu5AF607Q0LvWHwiHd41AwrdI4yovQBY0gz+SZLVq/j6ar6RbuH/YFAQ9oGoRyeCgww4ciKT4MD6WkBWhDpXOc954gb4fK87vJirZ85mlX0LAvCHhE0yCUwwOBhxpKdqP02plZR1taQZ571w6N38Vdw39Pe9L1hn1BwOMIQkCZGEwiVVr7zLh3DZDGAxptqJuWZGreN+wLAp7R9kBVAGnSapjAYBJtad27DCht0Po9NA3gmpOuHJoKPIMgBJRJazB5yF4LtCEDu5XCmxj3CRHk9WkFoaafmVqfdzd06QSeRxACCqT8gGQwibZYFSqQTKJoNR5oes9pNYjhzDZgCwQhoFxaDRMYTKItrSCf8kHiOdB6/1ctum1qBTdWg4AtNA1COfSip58+Sqc1q/6a8ji0pDXIi+VxBHk9WkEouVDBmUHAdghCQLk0H+4MJtFYCOG2RTvjtlgVUiABdF/pxycXhNjPBmynaRDSmknuUg6vAWhM+YA9zrVAW1qDU1Y0dWgG0BTLzDg0HthCqUFouZ45WkoCzl0pvQf7lBihJc0gf8ovbzgSPF8r/fhlyzKzZYfXsgsmm4AtNApC69mmrEzrj7sLB6M5pTmA8kwnD2q0oXnvHrEqNCjN4Nn2PtOadI2TTXzGAs9o0zUu5Y4k8VTqz6O5uxzN1VpbAhZozqq/pI4dTcksveaEHKtCA5DAeaR4CW3bUGvuR/7gvWdPG/CENkHoPIM3Ni61347mnGuCMjGYROI0z0phVWgYmmONlTTmaEO7MdMn7/2CexV42B9N35dYHjeab84heZn4exu70HwZzd3HOChj7xAKFAeTH5Re9mZViBPQ0dCl4r3rZJBOmXVPZMVYa2+Q62jFPH62ve/g+7RxJMH9hvOFnqURGA+8931MCi5oo/68xkFIxF/cl2EutXdv4wNtNHfH65mZD4rqwMsXioeyIX/ag8mF0sMHiYsPeRncaU3IvSbI90q78qT1imO8N7z33VxNey8zmLzO0X5PYfmao2Ke16Y0zklg0Dqdvg/V6tCQ5TqxLOnCOffGOffKOfe/EIKXr4l8jav/m3PuT/nfvZN/bzXgtSJDMmOk1T3OyaZeSuTQlGZ5XBTLjthr2jH5TNCcAFx2UBZXyWmcBGSlVRASOXYleT+ab/YO9dWH/0aCz58Sco5DCHEJ8zqE8GRpXhy0yv/uXP69OJP+lwSjlDv5QZf2YPKEGnY0dKl4uKqTCTSCfIe892MD5WRdrkZpNqUB8ITWQWg925wpdJbhmxxnor52uDp0J+/Tn7LK01ntZpy1kmA0llB00cX3RTnkcFXN1cU9BgtoQiaPtO+dt3RA7JT2xMxdx/cUn22AUW33CG2sZ+5UzuXJcR/Le3ltUzk/qZEQwiClE7KUf0ypERpYKM/CHsb7NoTAvduSDMo138c4OTNktcCpcovl6DKuaj63qo+nxQ5nBsYSl13+HmUv25Vy4wcAD+gkCImJbMray/CNPpQ227GrXBJtw+kUggbODZSjvPfe38oKFRqQ/SoLKdnSMujvz0DTBCfPvrhvtq+S6uzJmTfagdb1NIlwThAC7Olij9CGtJ2eKNdq9yk+5D6M5u56NKfDFfIjM6AWyioXskcADd8/5RB0p1TaZGEl8VBWNLAj+Zv/ZOB9u+pjIlE6C9I0ATCmsyDkfu4XyjkMOZlxjKtDOTaJACwMJvfoxNWMlMRqzzqfa5SHGRpoHhGGdiMhyEoL8j6rPij7BYzpNAi5X8NQzh3MqtWhy9HcMVhDNmQm1MKqUCxHvSYMbU/KirRLG53yRncrA80j+X3gGbUQZKGs/qbPM6Hke3j4HdYAABJLSURBVGseVQDgni73CP0Qw9BovglDC4XZydiZ7Xig0pD42r7JIayta+KlXfcLqTGvDwBjuIwzrLdSggj0ycLGc1cLQxM2oD/NUFnRheb+RDm8UnuvUOVTPEgzdgg1cC0mGQtBbqAgfSKTxTnupwaS00sQcj/3DE2l49pigD/6+PA7kRB2LsvbQwzm4uv6PJpvZnmOdwkqEnyOJfhs9eAezTdlh9eyGfmSYISuycbzC8JQGgyVFd0ZWZGJ1/DFwHU4CUPjgTvoJcFgCLrqczWoIp+v8R790PfPAvC8zkvj7pOVkgNZqelj71A8++TNeuYmUpa3CWHr2SZg/D3gfqVqdejJsyRiKV3cXzSabzrsfY3nT+w4e7knPyvO/v4r5XmcX4GunRja61eFIRoo3GNsMHluoVulwU3pb9kz9Ctp724pBLkhD4eP5/5x3h9gQ+9ByP0MJqcSiN50tH8orsD8vZ65g/Xs4Zr0WggbqiY3fqh/iStS9/cOSQA6lRbjHzos3XstP/OaQISuyOqLpVbxP1aGDFyLCbIH5auRweSdsfvF2v6cuGfolj1vm/v2RFbsLIWgjwoh/iTzvdRAEgYJQhUJRIv1bFMK9qdz7p2ElG1OtF/KDEoMUv9bzzYHnD67L0d+5nTg1aG30lluM2iTf97KRua+PvxfSiBa0MABXZCDTbf52xzKZqKBw4J/dIezsCeocmKpdFEGtWcGLqUuhvlvpYb5GAK995cGS8JUSjrl7yX3LruAeT6EYOYa5Xye+2f0dNYgQL7/YuCNtBobd+PgdVqVCqI/MqgZej/CmYSU3im9vm3Ev6vj0g4OlhWFSyPNACrLEIK5skV5r26Vz1R6zMeS9g3J54j2+VaP+VvzAGeDe6WQj1dd73uTSbihu5P2OuYZdEXoOeuZ+7aeuet7X53NMsr3n8hK1FCzMBoDlviw+Rq72Sn8bGREPkQt1rJvzvOSMpsieO+nUlprKQQ5g2VoGzLjbvUzMO4byn51SFaBzmUyxWIIutEMQe6/+7Q6csTS6jtQDFNBaCjr2aaWfVzAKc+fCEPogKXGCXWb87xk70W2A0rv/YH3PgbSzwZnjT/KQM4k4+e27EupZzw8+H4lRPJkD9s3KRW36M5KUJa/oTF7hoDhFRmE3O+rQzkjDKEVmVmfGn4XD2VAmVUzhdps+j8GV4GcDNpS2K91bHy2/UhWN09zaKYQA1Bc7ZI9bJbLvU4sldbGz1kpMaWbHDCgYoNQRVaH/sp8JuaTnOcENCIz6x+Nv3svcwhEsgJ0bnw23ckeLfNnOxkvkavsSd19LJc7T3GF6F4AslgGV3dl9aDbEMLQR38ARSs+CLn/wtCtdLKz1mWoSwtpFgE0Ipu7U5gwqAJRHFSepDLLHvcASVetfyQAWZ5NP7NcEnefBPkUPt/35Hf/T7wXZF+YWRLa40rW90QCkJPVQdPBWPYtHbA6BPSPIFQjZx3lujq0J92mgDamCc1U7kur3n9lUHlsLRRJ+FnIQPKznAtm3c1QXQu7JNec0r7QeC98jveGrBKZWOWU8BMnGG4ltPd5LEQfpqmsZMrq0KsC9jMDaghC90jL6UkCZUBNHI7mw52ejfxITX2Ke85ey4z1v9JcIc5iT4YORvIzTySYVeHnKKGB5Mr4frHnTBPszlWtEn2RUFSF+kFalstetamEsSr8fJC9eal5k9JKppPVzBDChEAE9MPUOULWyEGoVs8+aCrO5h902Za8ZLmfI/QYaVtt7WDEppayH+dWvr63OXtB9nfErxfSCWos/z3FgWNd/OyYpDaQvC+zc1vu5J69lnt489W0CYB8ntXv23FGz78LWWFJmny+nEioz2lsgu5xjtAW/ujrG+cgnmc0mm8eBKfGNy3vYk8+RIs/nR/NhRDOZUB5lMHbeChfP8rSvPfVf6wGms85KGBQcpJ6CHLSqlhaO382cDlt7cmeuF+6Ctbu321WEEq4d29yCEHu56p8fIafyGfwsVSxpD7RAqggCD1DVk5ORvPNjNsik1lEghBaiwMLmZ202Nq5K3uZv75tvbHaZauJuBnde/9GyiVzxr3734pvll1TZWJiU+4uZb5jCUXj2speDmMWoDcEoS2tZ+5Suq4tEtnQ/JS9eLbQeuayGdhAzVTKcpiNzNdFTiGoEl+TzKjnstqP3y2lnDP7UnB5jdfy9Ru515M/p2oAY4Wy72UVaDuW/Ar+EAhCO5DVoamcyZP66lD1GoDG4sNX9hUQhvKUxb6Kx8SW8DKTnkOJJ351V0oI2kYOZa1DqJWVDqnVvlS0Q9e4BuLqkNRVp9zBJfVVLRghA41J5ocSlyjrEFSR18h5LXkhBAHYCkGooRy6rklXPKA1wlB2ighBFcJQVpY5dDcEMAyCUDupb0QlCKEzhKFsFBWCKvKaz2xcDRoiBAHYCUGoIWmrnbocXgMMqYUhZtfTdFZiCKrIWRVvbFwNdlRMYwQA3SEINZdD9xU6yKBzcSAig+mPvLtJeaN9UK8F0iHvb9lngjTEVcwxIQjArghCzR2keuE1ObwGGBU7cjG7noQ44P8rxxbZTcVzhmRlc5XmKyjKu5JXMQG0QxBqLocQkftp4lAmg+u/GFCaFcuJxuyp+J28J7F8+MratWEjBvhXIYRz3g4ATRGEAPSKAaVZH6Wc6Fvpb8RjpMwznrn2zuYVFqsK8Jy9AqAVglBz1CIDW7o3oGTvha74/v8tpYvYgqw6sLJpwxkBHkBXCELN5VBKkvKBsEiQDCjH3Htq4qrcgeyBwQ5qK5s0AdGxlL1sxTf0ANAdghCAQcWZ3BDChNWhQVWrQFM6azUnK5txJe0Vq0ODqlaB2MsGoFMEoYbWM5dDbTIPFaiprQ6xd6hfH1kF6lbcmxJCOJADWAnz/Ykrx3+yCgSgLwShdlKfESQIQZWsDk1lhn3Jb6NTN1JKdMIqUD9kgD7mAOHOrWQFc8JeIAB9Igi1k3qQoOMOTJAZ9rGcO0TJUTsraSs8oZSofxLmjyXMs/etnTs5F4gVTACDIAg1MJq7F6O5i2U9r5O7+J9W65ljpg2mxHOHpOSIQLS7+H69kUEkkxwDkzA/IRA1cidlhgecCwRgSAShHY3mmzKIOMv6NqkL/x2zbTDrXiCiZO5pN1JGdCAH2ELRvUBEydzTVvI3Hu/dU0o4AQyNILSD0dzFevCvzrn9ZC76ccy6wTwJRGMGlQ+6kD1AE8qI7JFAFEvm/pSGFTRV+OmX8E4AAqCFILSFuAo0mm9Wgd6bv9jt3FAWh5TcG1S+K7hsbikz6P+L7wd7gOyTPUSxYcUL+d2V2iVxJYHwT8I7ACsIQs+orQIdmr7Q3dCKFEmSQeW5lM39JQOr3ENRfQA5ZgY9XfK7m9YCfe5ln3eycvlKVn9O6AIHwJI/+G08bDR3caAV6+1fWry+Fm4yOQPJilsp2xoSA4mfJ/3Hwy1PvPexfG4qXzlMWtzIPr5LBo75kd9pLE8+997HZ81E7t2UG/BUltKRdMGKJQDrCEIPGM03g6u4arJn7uLaibNzxym/AGtkZp5gqUwGXPHr1Hv/QgaW1VcKwehGrj/eS9es+JRDQtFCvpz3vn7vpjARt6ruW7l3Ce4AkkEQqsl4Fahyyt4g5E5CxGW9M6IMLsfydaD8N34jq3qb8Eara9TJ/fDjnpDVzvtfWpN0y9q9ey33L6EdQLIIQmI035QlLDJcBapcrWd0ikOZ7g8u3X8DzAMJRXFg+UL+84H8vw8adoeMA8VqYHgr//lbNXhk0Ihd1VY7f5BVz3Htnq3+u2tx797Vfs732v27+SdlbgByVHwQioejSgDKoTb7MUtK4oBfSQnPN0obkRpKcgEUpNdJmKK7xskq0LcCQtBkPXPMRAMAACAlvY5fi1wRklWgWCZ2ZOBy+kQIAgAAQBcmub2Lxa0IjeabX+JtASHoihAEAAAAPEx9RWg032zwnMhmz4eSZrVZc1PL37TrmawCxZbYb9tf9dau5JyTITvR3Ul3OBojAAAAoCsHCu9kr3uEfAihz+//oNF8s3F/KsFn1y5t1ZkFi20PBpVVoEXDTjpNxDBysp79dy6E+/maz3vuSnclP5cW2QAAADuQoxa+DPye3YQQkig5894PHhpCCL7P7z9YEJIVmRP56ioMrGT1Y/HY/2A036wCve/o520jnhFy/FAYqb0Hxx2Hsht5H+giBAAA0ABB6HFy5MQ/Q//cLIKQhJEuA9B9K1kJ+XGAopTcLQY8VX6nkjTpWHfcomPdSg6MPGcFCAAAoB2C0OO893Hc+nngH9v7e9PrHiEJI5cDlKTF7/95NN+Uhh1L6BpyFSh2Z5vuEkgktG2Cm5TuTe4d6FjtKVrJ/ignJYGt9koBAAAAOxrn+Ib1FoRG800Y+dDX939EXF35d+CfebaebVa8GpOSNsraAAAAYJHGqlXvY+NegtBovilJK+GMnrgXqNduFgAAABhErLY5G/itTqXCZ6jux4PqfI9QISGo9SoQAAAAYJ3S/qDoVQih11WhTleECghBK1kFoowNAAAAJZgqvcbeV8tGnX2j//YE5RyCPsaNYoQgAAAAlMB7/0IpCN2FEHoPQp2sCEl3uKEbIwyFVSAAAACUaNrj8TdPGWQPfusVITkk9HKL/2mKLlgFAgAAQKG09sQPMvbuYkXoZIBzgoZ2J6tAuQY8AAAA4FHe+1PFMf4gK0KtusbJatA3pSWzvlxJCPqe0WsCAAAAtuK9H8uqjNYY/38hhN7H4m1XhE4yCkGsAgEAAKBo0iBhoTjGXw4RglwHe4ROOroObTeyF4gQBAAAgJLF8fCh4usfbG9+4xWh0dwdZ7AaFFeBTtczd27gWgAAAAAVshJ0rRyCnKxGDaJNaZzW4UpduZFSuN57lAMAAABWyZ6gSwMN0FYhhEEaJbiWQeh1h9cxtOV65iYJXz8AAADQiqwCxe5wb428k4NuU2kUhEbz5EOE9pIfAAAAoEJWgE4UD0x9zGBlca5Fs4Rxx9cxuNE8/dcAAAAAPCeu/Hjvp977c+993Bby1Tl3ZCwEDVoW51qUxr3o+Do0HAx1WBMAAADQJTnw9CljGbOPE2lw9tzr6VzTIJTD/prx0HWIAAAAQEfeZ/RG3mmMy9ueIwQAAAAAbZwPdYhqHUEIAAAAgJa4GqRypidBCAAAAIAWldUgRxACAAAAoGSltRrkCEIAAAAAlJxorQa5FkHouuPr0JDDawAAAABSdBVCUO3g3DQIfev4OjTk8BoAAACA1MQGCcfa19w0CKV+EOndekYQAgAAABQca5bEVRoFofVsE4TuermiYVAWBwAAAAzvTLskrtKmWYKJF9BQytcOAAAApOgihHBq5boJQgAAAAD6FpsjqO8LqmschNazTZhY9XJV/bpYz5x6TSIAAABQiCsLzRHua3uOkNoBSC0sErxmAAAAIEWxHG5qoTnCfW2D0CKxVaGb9YxGCQAAAMAAzqyVw9W1CkJSYmZmw9MWzP4iAAAAgEzE7tJ/W2qM8JC2K0IxDMVVoZterq5bZ5wdBAAAAPQq5oKxlRbZT2kdhMSx8XOFlutZUitXAAAAQEpiFngTQpiEEJJYfOgkCMlKi9Wys/hLmRq4DgAAACA3cax95pw7CCEk1ZTMhxA6+2aj+SYMfersG7YXfzGT9czdGromAAAAoBXvfXeD+GbupIP0ucWOcNvoNAg5W2GIEAQAAIAsKQahpQSgy1QDUKXzIORshCFCEAAAALI1cBBayrE5l6ns/9lGL0HI/ReGJvHNcs7t9fIDHhd/UVM6xAEAACBXPQeheE7odfWVU/ip6y0Iuf/C0AtJj697+yG/OqM7HAAAAHLXYRCK7a5jidutBJ9vuQaf+3oNQhVZHYqBaL+nHxF/gcesAgEAAKAE3vsmk/+3EnpcCOG69BtlkCBUkb1D8etlR9/yIgas9cwV/4sEAAAAsL1Bg1BlNHcHcrbPdMdQdCdLdnHv0eV65pLuVAEAAABAh0oQuk9K5+J+ovEj/5MYfr7TBQ4AAABAF0wEIQAAAAAY0oh3GwAAAEBpCEIAAAAAikMQAgAAAFAcghAAAACA4hCEAAAAABSHIAQAAACgOAQhAAAAAMUhCAEAAAAoDkEIAAAAQHEIQgAAAACKQxACAAAAUByCEAAAAIDiEIQAAAAAFIcgBAAAAKA4BCEAAAAAxSEIAQAAACgOQQgAAABAcQhCAAAAAIpDEAIAAABQHIIQAAAAgOIQhAAAAAAUhyAEAAAAoCzOuf8DIwQ6QI/369cAAAAASUVORK5CYII=;imageBackground=default;" vertex="1" parent="1">
          <mxGeometry x="1020" y="445" width="159.87" height="60" as="geometry" />
        </mxCell>
        <mxCell id="bDEAGJGz-RoX0q3UjHod-27" value="" style="shape=image;verticalLabelPosition=bottom;labelBackgroundColor=default;verticalAlign=top;aspect=fixed;imageAspect=0;image=data:image/png,iVBORw0KGgoAAAANSUhEUgAAAlgAAADPCAQAAACDk2eFAAAABGdBTUEAALGPC/xhBQAAACBjSFJNAAB6JgAAgIQAAPoAAACA6AAAdTAAAOpgAAA6mAAAF3CculE8AAAAAmJLR0QA/4ePzL8AAAAJcEhZcwAACxMAAAsTAQCanBgAAAAHdElNRQfnCgIRCTjDCJsgAAA5rklEQVR42u2dd2AVxdqHn3PSK0novTcBAUVBLCgq2LuoV1EUy6eiYC/o1WtFvXrtig0LWAF7Q0WxgNJ7lxZaaCG9n/n+AGKSMzu7Z8s5SZgn/ySzO7szm93fzr7zzvv6hECj0WjqAgX+SLdAo9ForKIFS6PR1Bm0YGk0mjqDFiyNRlNn0IKl0WjqDFqwNBpNnUELlkajqTNowdJoNHUGLVgajabOoAVLo9HUGbRgaTSaOoMWLI1GU2fQgqXRaOoMWrA0Gk2dIaKCVbsj29Tu1mk0ByPRkThpGav5nYXkEks6bTicviRH+krsp4KNzGYx2yglmfb04zAyIt0ojUYDRECwKviT15hGVpURTAr9uZbTSYzwxRAs4XW+IpOKyrIEejGCi0mPcNs0Gg34whtxdDf/Yzy7JFviOY8H6BLBS1HAGzxNpmRLNCfyCP0i2DaNRgMUhFWwMrmFTwkYbu/D8xwboSuxi7G8Tanh9o78jzMj1DaNRgOEV7C2cR1fmuzTidc4IQLXYTejed/EzN6Clzk7Am3TaDT7CZ9g5XMTb1vYrzuT6Bvmq1DI7bxqYVawPRMZGOa2aTSaSsKXhOJ1JlnabwV3kBXmq/Aab1pyYljP3WwNc9s0Gs0/hEmw/uJpyizuO53/VZml854/eFJhu6rObzwX1rZpNJqqhEWwCnmaLZb3FrzOz2G7ADk8zrYQ9n+LP8LWNo1GU52wCNb3fB3S/nt4htwwXYAp/BDS/rt4keIwtU2j0VQnDIKVz2sUSrdEEWtQZ3qIEmeXLF41+Bz0G7btO34LS9s0Gk1NwiBYvxo84Ancxet0kG4r4c2wjLE+Y760PJYbeZce0m15vGPZHqfRaNzE86U55XxIgaTcxygeIJbGXCmdFZzJDM8dNbOZZGBCv5pxJNKMy9gs2fojy+jjcds0Gk0wno+wVjNdWn40txELnMotREm2F/ER5R637XfmSssHMpZEYBBjpG3L4iuPW6bRaGR4Llg/SucH47mZpvt/H8nR0po/s8rTllUwlSJJeRJ30GL/78M5Qlr3O3I8bZtGo5HhsWAV8720fCBDK39vxI3ES/bZyo+etm0jM6TlQ6u0rQlXSsdYS1jqads0Go0MjwVrPQukJ72E1Cp/D6G/tPb3njoQ/MEmSWkiV5FQ5e/T6CrZK5dfPWyZRqOR47FgzZUa1DtwUrW/07hY2pAF/O1ZywL8KDW4968RL6IVp0jr/0GJZ23TaDRyPBasP6XBZI6lTY2SobSX7JfFbM9alsUcafk51cZ+AKdKAwsu06sKNZqw46lg5bJQUhrFSUGnbcsgyZ6CmZ5FVl/ORklpC04OKutNZ8me2z2eEtBoNMF4KljbWC8pbSaJ3elniNQlbAF7PWrbXKn3/RF0DCprJJ0pLGaxRy3TaDRGeCpY69gjKe1Oa0lpP1pKSjdIx0HOqTDwcB8kWZDjM5gSWKbz6mg0YcZTwVotNUz3qTYLd4BW9JSU7mWlJy3Lln7QpXCkdO9eNJCUriXfk7ZpNBojPBUs2Ryfj17SfeOkH14VLPOkZVul7qxtpNYqaEMzSek2sj1pm0ajMcLDtYTl0gw0yXQy2L8vMZJFxSupkLpuApSwm61kso2d5FCMIIZkMmhGK1rRlGR8BjXXSz3VDzHIQJhOO8mILJsdQbOdGo3GSzwUrCK2S0rTK5e91KQDaewMKt1AHmk1yirYzkL+ZD5ryaIgaM2hjwTSaUMv+nMEnSSfoGul8RZ6GVyOeKnTRYG0fxqNxjs8FKx8qcm9cZD8HKAZLSSCtZ091Wrs4He+5nc2Khw3BYUUsoVZvEEjenMKQ+lCTJU9ZB+rUXQ3PGJbSVlZ2GPPazQHOx4KVh55ktImhvmdG9CORUGlOWTtj5kVYBWTmcpyyxHYIcAOfuBH/suJ/ItjSQagVLooJ1kqS/toiU8yJ7jDu4un0WgkeChYuVJPp8bVRjpViaGdpHTfh2WA5bzFZDbbciUQbGMiUzmOaxlCEoXSj7mMyvgR8lYHy+Ru7y6eRqOR4OkISzYSyjA0hCP1zypnB9t4lQlSE34oFPIdMziZW2knNbk3lDov7COdOElv9npx2TQajSGeCpbMsN1AUaOp9MPrA8az0CUnzSK+4A+OYZdkWyNpkJt9JBMv+cDNIxCuPGkajQZPBatAuvA5WVEjQ/rhNQN32c3nhmc3Il6akqKICi1YGk0Y8fB5K5IKVryiRqpCMryngeJixEhbViLtoUaj8QoPBUueWUYlSQkRFSzV2C9KOhQt16sJNZqw4uEnoTwfjU9RI9Z2c3yV3vAB26Me1djPJ213QAuWRhNWPBQsuTSpHvFow0U4RmdIoxO96E5zEogGApSSzVqWsIJtIWYPjFVulbXbh0ajCSceCpb8806VuisqBAlowJGcyrF0ooGkVjFbmcv3/MxGyyMu1ddxhXS86NeSpdGEFQ8FK17qpOBGWonWnMNF9DX0mYd4OtCB89nIN0xinqWxlkqwyqRHiNVzhBpNWPFQsBLxS8YlBYoaPgsjlmZcylV0syQVUXRgFJfwJa8wz8CmVvXsxpRInWDjtWBpNGHFwycuWaqGqgSkZoIVx4V8wZMcElKzGzKCL3iUVg76UiBdap0Uos1No9E4w0PBSpGasVVB79ZLl0sfoD0vMIEjbDW5KXfyGWcqB5R/K+xrOVLBStU2LI0mrHgoWKlSR4FdhvakXTxhKFg+TmYy15BkuzU+Dudd7lcsDfqYbwy37TZYF6nRaMKJp4Ilc8XcWc3sLiilgDxyyeVFfjY4UgxX8x6HOW5RGmN5VbrEGiCHh1lNHrnkU1zD4rVdOtfYyLuLp9FoJHhodE8mXZLmaxe5JLOTdaxkNZnsIp9SBAHWGDggxDCaB5R+6NaJ4mIacz1rpFvncxYNEESTQDrN6UBXutKSeDZL9vYrwtFoNBov8HSWsLGkNItn2MkCNpFnyU/czw086OBTMJgTeYkrpUkoAkGR2+NoQnf68Ytk73hpagqNRuMdPuHh6pKRvOX4GBfxCumut+w9blQa+K3QlJ8VQZU1Go3rFHjqSNTe8RGO4DEP5AouYYxjl4TG2oal0YQZTwWro8PDN+LR/fHc3SaaWzjd4THaKIMRajQa9/FYsFIc1R/JiZ61LZ2xNHd0hK4my6U1Go3beCpYGY4EqxNXe9q8flzoqH4LR7U1Gk3oeKgIu3jeUea+8wxzRLvV9Uul85hWeZ/fPW2fRqOpiWeCtZqreCnEiFRVacdwzzt/GOc4qL2Af/G+6ZJqjUbjHh4J1jyG86WDiOfJ3EVPzzsfze0c4aB+JjfwQghpXTUajTM88cOaxbUstbRnHA1IIQ4fpRSSSyEB4unBGIaFKb77ch7nO7IJEEsKaSThp4Rc9lJgybE1kbHcRlxY2qrRHOQUeCBYc7nSVK78NOdwjqI3bWlALFBOITvYShHNOdSRbSlUSljBGkppRAsySMBHOXlsYxVz+ItV0vzVVUngAW6NaPoMjeYgwX3BWsHlzFXukcAALuBE2td6twDBHuYxla/ZohxtJfMk1+lgfhqN17gtWFu5kmmK7XEcz/UMduifFV4qWM07vMdWxT4NGc/5kW6oRlPfcVewChjNm4rt3bmD80mNdKdtEGAhT/KZNIzfPjrygSMDvkajMcVNwRI8y92Gc2axDOPfdI50hx1QwEQeJdNw+wm8r+M3aDRe4qZg/cpFbDfYlsY93OhqkJjI8Ae3Mttw622M8zJej0ZzsOOeYO3iYn4y2Nacp7i4niRsWMvNfGuwrQHvcWakG6jR1F/cCy/zpmGA4+a8xKX1RK6gE+MNRSmHcYZjTI1G4xyXBGsxrxj4tTfkWc6NdC9dpTUvcrLBtlkuhCzUaDRGuCJY5bzMRumWBB50GBOhNtKG5+gj3SJ4g+WRbp5GU29xRbD+YorBlmu4pl7m7uvOUwYzgut509KSHo1GEzouCFY5b7FLumUQ99TbVXYncbvBjOAnLIt04zSaeooLgrWIr6TljXmgXvslXc1p0vJMPox00zSaeooLgvUxO6TlVzEo0r3zlAbcbSDIUxXupRqNxj6OBWuLwfiqx0GwHHiAQZDB1fwQ6aZpNPUSx5oyg9WSUh8jXUjyVdvxMVKa1aeCzymOdOM0mnqIQ8Gq4BvKJeU96qEzg4yuXCQt/0sq4xqNxhkOBSuTWdLyC2kV6Z6FiYukycKy+C3SDdNo6iEOBWu+1LzclLMj3a+w0YPB0vJfHCTg0Gg0chwK1kzpY3k03SPdr7ARzdnS8MgL9apCjcZ1HAlWAfMkpT5OqfXBj91kgHR6YQsrI90wjabe4UiwtrFWUtqYAZHuVVhpyZGS0iIWR7phGk29w5FgrZcuyel2EDg0VMXPQGn5Ur2mUKNxGUeCtVbqbdSb5Ej3Ksz0libV+Ns0QZhGowkNR4K1QVrqfcbm2kZb6RKd7eREumEaTT3DkWBlScri6RiRjgSoIBChj7AMqddZrhYsjcZlHORMKGevpDSFpmFqeoBstrCRzWxjB9lUEE08iaTQkJa0ow1NwhTcJl4qWMXkh+lKaDQHC44Eq0BSmkIDy0eoYAPL2EMsbelBmuV6ZaxjJjNYyGZypZ5gfhJpQlf6cyx9SLccRLCMtawkhzja08NyulcfTaTH0jYsjcZdHAhWhTStaCIJFuuv5UU+Ywvl+EiiLzdxtgX/rSym8ykz2WYQQ34fAfLJZx3fkkQ3TuUcDpW6d1ZnJc/wFTspx08K/RjF6RZqAVKxrVCkXdVoNHZwIFhCuuw51uIhf+cmFlYeKZ/fWMCd3Kn8iNvEh7zP8pAWvRQwj3mMZyhXc5RSEH/nBpbs/z1ADj8xm1u5y5IAy/YJ6MU5Go3LODC6C+kYx9rH11Kur5SrA+TzOO8a1sjmJU7jHhbZkoGdTOQc/o9Fhmb5v7m5Uq4OkMc4XrZkyJf3OmChpkajsY4DwfJJK5dRYVqzmHEslZQX8QzrJOUBfuMixrDMkQTsZQJn8j/p3J3gZRZIykt4mrkWji3/+KsvuRg1mtqCA8HyS+07RRYsN38aRCmFlUwNKivgWS7kB+kHaKhkchdXsSKofI1h3p9tvGthjCUTQb9F+5dGo7GKAxtWNImS0jxyaWFS8zuFh9L6Gn9ncR/vUmq4fwKNaEojkonBTxnFZJPFDnINRmPlTGUNz9YICrPTIO8PwHS2S2NeVa9v9fpoNBr7OBKsDElpLll0U9YrCbJeVaW6NWgTN/GldITjoxmHcyyH056GJBCFn312tRJy2MIyZjGTNdLx3hJG8CznVjmXT2F728Q6E8EqZrOkNCEEBw+NRmMFB4Llp6WktIh1JtlyCqUe8geoOkuYyfV8I93ncC5gKB2D5hR9+IkmiRYcweXs5E+mME1yvkxuBM6r/DtGYW8qZIvJldjLJklpGun2L65Go5HgQLCQRmUQpmFVAgrTua9K6L/d3CqRqxgG8n8MtSAGfppyNqezmLf4KOiTbztjSKv8MGxBc8Vnqtk0wka2SUqbh+AKGxkEVmd1NZragSPB6ki8JF7DfPKV8RqSaW0oah04Yf9vpTwuMcC351YuDWnkEs1hHMrFPM60Gmb7TG7jQ7oC0IKhhgH3kmljco75UrHrUMtsWCVks4OtbGU7uyigjADgJ4oY4mhAE5rTnGY0ItHzBG05rGQ9xaTTiQ6WXY3zWMXf5NGALnSxXEtTn3AkWB1oJLHerGAtfRS14jiVbw1GWcMql05P5tUa+/g4mXH0tdXJY5jEczxDbrXyhTzI6yQDPi7lI4OgxoeZxJ8oZ4a0vEctGb3ks4HFzGcZG9hJPqWGs57RJJBBS7rSh8PoSkNPhKuYqbzKIvIJEE0GR3ELx5leq1K+5iXmkUuAKNI5hpsZVO8zX2qCEA7IF4MEkp+nTeptF8dI6/UXG/fvsVb0rLEtSlwutjlprCgTb4rGNY4aK8bv31ohHhJRkjYliY9MjrtatJXUSxDfO2qtG+wVv4j7xSDRRNoz9U+y6CWuFZ+ILaLC1TYViLtEQo1zNRPvioCyVqF4QCTXqNVYvO5y2zS1nnxHgiXEbdKb/XiRY1LvD9E1qFZ3MXP/1oqg4/rEVWKP494GxKQgyTpE/L1/a464NujBjhP3iRKTo74kfJJr0ElscuH/Y5dysVw8IY4OeshD/YkR3cUt4ndR5FrL/idiJedpKn5Q1npBxElqZYjPI3iNNRHAqWB9Kr39EsWXpjVni1NEfJUH42Qxp3LbAtGixhHPETtc6W9AvCVSaxz7gcqte8X9VQTNJzqIF0ShyRGzxXHSR32YKHOlxaFTJv4S14tWUhm195MmzhNfinwX2rZSdDA4x1CRa1hrtehkUOtYF15jmjpEvk84inm3mZNYJSk/l4mmJuccfucP1lFCcwYxpIop/Q7+W23PPnxMZ5c+gSt4hIerzft14zva7v+9nPl8wwrKaEofBtPJ1LbyISMkvl4+xnONSy0OhQCLeYWpCjdYuyQymBsY7DDC2LPcYrAlmS8qJ1xq8hKjDLYk8ClDXe+rptZS4MjoDi0ZJBWs7/mW803qNuB0TidAgKhqspBZY+FOKg8o5GoL37KdppxIB2AD09lMc06T+ogBRHETf/BDlZLVTKsUl2iO5EgCCPyWTOa7eFnqmtqK45xdWFtsZzyvm3qN2aOQr5jBOdxKb9uTCYL5htvyWW0oWGsMaxWxVAvWQYVDwfJxDhMlgeoKeZqBpgtaAPxBMz0zayQPO5/TDGtvZyTfAz46cz2xvMgqAvg4gQmGzggZjGFWlWigAb7mimqBZ6zPPb3NTGn5YDo5u7AhU8EPPMRfnkaIyOM9ZnALV5Fqs415iq0Fhlv2KmrlojmYcDwvPJAjpOWzeMbmcuVfqtVL4ypFFKspTANAsJrbGc0KAoBgOh8qznB8jfHPfKmnujmzeE7qVJrIsDBHatjLI1zKrDAEtNnEndLl41YQytBARtsC0txMByhFczDhWLAaMNxgmDZeKRpG5NQI83IEhyn2Xsc/JriKakK3QVErkXOrdXw7y220dDP3SNcQwjEca+N49vmbq3mYPWE6WxlTGMZ3hG78FMo1A0bbAkpRMg9mpKlPuOB5dxb9pOV53Mv0kI+WRWa1vwcpjfcDiJeWR3O48iwDq0VhL7MxYtjDnQYOowlcYzkavBvM4VKmhPnBXcqVvB3yCFooR4AVhrXKbdTS1E9cEKzG3GAwd5TJTSEnbM+ulmsmTjm+gtMZIemCj0u4QFmvNR2q/b2d0CjhP3xksO1kTgnxaE74hcv5K4znO8B2xvBiiNFfhUkcfqNaFTZqaeonrqxtOMdwpmY5j1IU0rFKq71PU2mt3DuRx7mrxiLjZG7mGZPQLsk1BKuY0PiaNw0elYaMCWPm6+mMNFwD6TW53MfzIUuWnW1asDQHcDhLuI8U7mKONGIBTGMRA0I4VvXbNsH04U/jIQZwXeUYKZ0XGGYa69NXI5ZXaLd9KRMN57RGhtGhYRbXS0NKq4ihES1pRTNSiAHKKCF//7LorBATkxXwIPFcb/mtJ2wJlr1amvqJK4IFR3Ez90nfhHtZHpJgVafMwixQNMfTplKw2nCKpdDE1QUnNM+iXdKI9AADuTls84MrGMXqEPZPpRfHMoBuNCW5xj++nGL2sI4F/M4ctlgW8HzuJ4NLLLfBnmDZ+ZDU1E9cEiwfZ/OigctiaJ9bMdXe1zlsoYtpnTyyK3/fQw4NTWsUsbHa3+b5EKtiLKNnGDqsus1Oble4YVbHTyfO5iwONfSfiiaZZNpwPKPYwHQmM9PiaCubu2nl8ayoHkVpDuBafI7P2Sotj6tc9mKNlGpxjgpZZKHOZnZU/r7bkk/VDv6u9neGhTr/kEYzgy1fKKOpukcpj/OtpT19dGMc03iCYyy5e8bQmev4lI84zWAGtiabuEPpRFIV/XGncYZLgrWGNw1uuO4m83w1aVpDDH6xkIVnc5WZxRJL/khzq40G/RZGcVVpYDjJMEcSdNALJvOapQc8g9v5hjtoG+JHbzJn8BGv0sPS3n/xiKWpFbU1yniWUPXZp2Xu4MIlwfqwxnKaA8Rzo6UFOv+QQa9qf88KSm8aTMsq84SJNDLdv4SPq33UNbT4YP7DCIMQhRW8Lc2g4y6reESxkOUfjuQDHpcGsrZCMlfwKZdasghOsugk7L68aBvWwYUrgrXFwCfJx7VcGuKxoji+2mhgB2+ZOij240aSicJPEsNNXEYBpvNdtb8PqYxzapX2PGGQzGxBjWO7TylPWXB0jeISPmaIwymAzrzKAxbcYIt5MqQJAI3GHq4I1jQDX6CTuM9G5O3jayxbfp+vTWpEczff8TEf8DVPkmSy93bG1Vgye5oNz6khjJWa6st439Loxz7f8bHpPlFczUshWg/lJHMXz1iYxljJc66kutVoVLggWMV8KnVoaMS9NLZxvI41ojPkcK80jXxVEjia8xjGIFO5KuRhfqtW0o6zbPX7ck6Xls9inq3jWWMPzypjHgD4uZonXEsyFs1VPG1hWuKDGtdVo3EfFwRrpcHSkAtsTnb7uaLaSj9Yzg2Gnk+hUcTjvFHDknLh/sw5oZLMTVJRyLE4f2ePT/nddJ9LedzVJK5+hvOY6YdhNi+FuKpBowkVFwTrlypOBf/QmCtt20/6BVm+/uQKfnVsst3FPTxVw4eqMyNtB6QbyMnS8p88i5ywizdMF8MMdXF0dQA/I7nN1Gnve37xoM9CzwRqKnEsWCX8LC0/0VZCrn1EcVPQLNx8LuG5Kg6ioVLOL1zCCzWcJGK5xeb4CiCOS6S+SqtshauxwtfMNdmjM0+EOC9rjWhuMY0hm8/bFpxQjDCWJT0TqDmAY8HazEJJaQznWZoON6I9DwVZTbZyJxcwRZGh2Ygy5nAj5/Nj0K1/CZc76v0xHCIpzfUofkIeE00M2wmMpbcn54ZU7jf1V/tRab/zYpGNHn0dXDhemrNUuui5IwMdHvd07mNsDZtIGdOZST/OZTCdLM3sVZDFHCbzvdQ76ngeMjXSq2nESdIFMn9R7taqpyr8yZ8me5zHMNfP+g89uIWblZ+ke5js+D8fGm4IVoAicskhjxIC+IgihljiSSKFJJf+j4JsNpBNLM1pZXENQSl55JJPGYJYkkklJcRFZMGtKCKXXAoow08cSaSQQlwYUv4KSskjhzwKKaUCiCaWRFJpQHIIvXL835gnvYGPcvxZ4ucGchgX9IlRzO/8QUO605detCaVOKLw48eHj31v8XJKyGMn61jCQjYYfKb05yXTJPTmHM/zktWSy9lNU8fHro5gSrVYYcG05BaPE7hfzNRqCTyC+ZZbTEIC1R6K2cwKlrCCjWSRQ9H+2W4f/v2PUwat6cqh9KKdo6BBO3mbj/mbIvxkcDjXKT3kAmxhLrNZSiZ7KKIcQQwJpNOaHhxBP1qF/ODmspK5zGct28mhhAp8RJNAGs3pTF8Op4vDl7eccnawmiUsZx3byKaAMioQgI8oYkkmgxZ0oie96Ey66SefQ8Eqk/qh+zjGBWt+HHcTwzjJQyrYxW/8ho9YYonCj69KlpsAAcooo1T5kTGYF+nuuI1wKG0kLpNbyHRdsDbyk8kel4W4DCp00hjFTKWf2Vp+DdlZOPwUsJSfmcFSdijjgaxjLhBFBt05gSH0tvVQr+Mmvqu8GwvZzK88wI3Sh6+UOXzANDZIBgKZLOZromnN8VzMsRZfThWs4gu+Zik5kvHoZpbyAz4y6MNZnEk710Zb5azjV6Yzn0zFQvo9bGIh4COFDgxkCAPVzlDO8hruFL2kGXnnuZQ3sVS8JVq7lhD0n3zOI0Smay08T3KGKPGhS8f/h4kmCefbiuWunzOYfHGGydX9l2EK2XxxjKLeXQa1CgxS1e77uTbE9gdEpnhVnCzSbNw3DcQQMSHklL654gLJsVLExKA9K8RscYVIt9SWZHGBmCUqTHu7SIwSLS0m1fWLTuI/rjwZe8Xn4jLRSvhtPJt9xMNilVHPnGZ+XiqaSE7aW+x0odMHLvksMVREuyhX7cRLrmQxPsBD0rM85OIZhBCiQlxu0q8xIuDyOeV8Ik0b/89PB7HeoKZdwRrkmmBtFI+KQ0yEX/0TLY4UbyuyVAczSZodHdFXbK22327xkGgWUluaiadEnuLMu8RjIb/ufaKvmCxKHdwfe8VEMahKVvfQf3yinXhAbJLeQg4F6zvpzXu+y2na94jnRTdXUq+niZFiicsP9hSpnI5w+SyZoouyZxlipqvnM2aX6K9sSYz4xKCmPcEqFCe4Ili54jXR05W7KFacKWZb/P/KR+D7rtOUKvutFWfbENIYMVJkGZx5nhhiU5pTxVix19a9USa+FycbCHSootVHfCxKgm4hh6amTVKDdmeXZ8jSuYlveIReDlwlfDRlBJ/zMj1dnhNpL40ztSnkOPFqlpjE+RpgED/CfRpytnJ7mQVf/PCzjCsZxVLcmFUs5UvO5w1LPme5BnFMoIxlVVp3BZ/byABUxluMksRgE3zJRUyzmVMol3GMthF1ZCf3cRE/uJIrUrCQqxjL7hrlDgVLHsfdbkATFe25l2lM4CLahShbPjIYxKNM4zWOczgtLKOpdGlwlsmMXqj8qRRAH2d4PD9YlaEmIXzm1Lp8zNMYxhRXk65mMoaHLPyPyxT/twOSsJbr+MNmOwSfcFfQ9f6Eaw2F0goVvMsYdoVUZyUjeEqZpTtU8nmGa2vEBnY4FJJ1KdazMMHNuJRhbGYhc1nKRnZRSBkBAogqb859c4ZRxJFGS7pyGP3o4mEmm1QasyaoNI8CW0u/5ZSYeLg3C2PqC+hGX6Vzw1o20TOM7VEjmMIYg/DdTijkSQp4xOTOqlCMcvZJ2S5usy1X+5hER8ZWGXt8xeiQE9fVRPABDfivMitoVRZxLbMdnjOYAFPJZzztKkscCpbsDRNvIYSefWJoT3vOpYxcssmjiDLKq9wWfvxEE0McSaSRRoLnTnHxUmEqdbBIJZgdrFJuP7RG2jJvSeR4pWDtZnktEqxPucnx4yunnJdI5t/KUXtA4VwTAMp5ii8dt+M5BlSua13Aba70V/AmXRltad8VXMMcF84pYxqjeb0yHIIjwRLShzLBUuxwp8TQ0EKUpnAQLQ29UuFqdKgNJrHiB4bxgxDgKJIU3lgVLPHU4z4UfuUWj+QKoJxn6ciVij2EyZKjbxjvgl1tN09yBGnAHsa6FkqxlKfobyHn1Q5u9UyuAL7kIf67f3WAIxuWPIl4vOVhZH1BFsrFXcFarbSWxHFEmHvclVbK7StqSTC/7Yy1lJTEPgU8LF1NewC1GO3kKRtrY2XM4HMA3mSai73bwn9NsyeV8zTfu3jOYARvVcY0dvhJKPt3xHpg2K7dyLyfhSvzUQdQfxA2CTGJhnMa013ZpvXkuR7ixg4TLFqH4mhGG1rSiCT8FLObzWxgq6WZ3vU8xZuGqwNV90GAqcwy2OavXGhmjTLe5QIyeUVhM4siCgiE9DL5lh9NAlxO53VL93oUDWlNG5qSQhSlZLONjWw2DUcJUMSTHENHXMtLWL1hruUOqyPIBNpNwSo3ye/c1vVlQGbE0JPPFNuz2FULBGstb5n+F/x04DROpieNSai8cwXF7GIZP/AVa01F4wt+Mog+q74PVrIwSF4S6M4AepBBDFBKNmuZy2IL47DZ/MF01ku2pHIIh9GN5iTjo4gdrGYeiy1FbStkAkMUi7XzLQV9SmMQZ3MEraqk8BWUks3f/MpXzDO1+C5nAo/giWCFmke57iPvr3uCVchm5fZOnixbVdMdv+JB3ksWncPeppp8YDq135pruEyyfs5HAq1pzVBu4j1eNci5eYB8JnAScSG3768a90gDTuMy+pNRoz15LGISk03cDPK5j8yg0uZcwIUcSmqNYxawjA/4wEIezV9ZRH/Drb+YBm1M5myu44gg0fMRRzOacTTX8w3PMcfkifmAEXTyYjAUOOgCrsniVfhcvLS5Jrdqxwi8ItopRbLYwEMvnGQxRbndx1A+5T7aK66ej3bcxyccZXKuX1hso4WBKo+oj4F8wNucRsOg9qRwDC8ylRNM/s9zakwvxHAeX/Asx9IgqGYSR/I0Uxlseu/sUVioKphiYuPqxgTe5FhlQJ00/sVUrjUxJa3jWxw7jso6W2YaxLe+IYtk7nNRRHKUjpg+V7LjhEqzKrkgg6nwcGbOKouVs2VRXMW7HG7hv+RjIO+Y+LntNjR1WzMNRDOCTzhV8chGcSyTuCSEuyqJe5lAP8Uj7mcgE7nI9JgzDGeEd5qEquzP+1xgaezZkmcYY/LB9w0FzgTLJz1B8UGXikBmX/A7zAhYlb3KKxpXI1d2eGhgkkdnh8XjeMffiqvmZyRP10h1oqIzz5rkrpxhMNKwIld+ruVZgzyXVWnOs5xjscXx3M9YCw5GzXm2RpaqYFYYmiRylZ7t/XgjhEDpiYzlPOUei1npVLBkb4QiS3b/+kNF0HongGhHIaKrk6tcVJIQEX+0eJOHYbfF43iHKmrXOTwWYl6hvtyifAUtN7Ezqjibhy36LjbmMYtR3K5htMU7sCmPmYjxbsOxqsr805kXQ3QfTuUepbvMTmY7/SSULUsoqgU3azgpli4TjXHRuSNfOREdHkfd4P6pve1yXHXrsIPxLGUfxtkQ+QuV4RF3GCQTNqeTJH+BMd0YbWGmrD93WQzDDHAo/6f8LCyVLD3bR4yhKKYxTmGqN6I3Fyi2ljHHqWDJLnSJyZxKfSNX+vmT5KL7bKFyGiMxIo66fpMHIt9mpAAZ9qyBPQ0kK43/2JrBbGLyMNnLlOTnxhDHIedyqMke8YwJcT3vhSaefBsMyjMMQqH7GWUS00OOj3OVr9/VTgVL3tx1IR6lbrNTOofXxMXl1uooA/ERcdT1mXxwFLsmWHanL3pxkqQ0ihtMbTZGDFJ+RtqLUHEoF4VYowlnmOwxgFNDPGZb6bX6hx0Gr8x0LpR+KJ/CaJs23B50Umzd6VSw2kofltUuvl1rP+ult2prF1f3qWdd47xxpjPBZ3LW0og7tyQwNmgsEsUV3GH7erVSLuu3J6vn2kjXMkg5pvZxgY2834OUV6XI8L95DZcFiUh//ms7AEK6cqyX71SwWksvzWqX1kfVDZZJBaWji35YamtQZFYWmPmZVUTchgW9mcglNNzf0hg68hBPK90x1CQqP1fs9DedoTZqtVIKUlOOt3HM7ko7WrmhYKXxDPfTbr/c+cjgMt51kN7Fr5wtLXb6cm5KU4nJeRMbQzAj1m3KWSAp9YdxdZ+bHl/u4e5aSrv04i1WspRdxNCK3rRxJO4xylGznRFlF1t5xxOV7ehuK4BmU5ooXFFUfcvg3wxnIVsJ0JBDOCQEc7+MNMU2x9k+0+jE0qDSPcx3kKi+bpEl9XFODaNg1Q5pqElULZHRePq4Fjw6ykVXlX30sTXeU89At7U1CZOknDcNKO8xPx1NHCNCQSXG5U6/JmKkidEFMw4aK9ZiafiSlq56n6vNl2URutZqmYyuh0vgzex2oWPv0ylK2Q57kz1RynFRIIwvRVXfAs7vqsOlaj9TsgyzfvKDNARJT1edOdXv9ZKIxJ4yC1IS76Knf23B53qfQl8wDWarKLw4ZjjH8CpJEs4Fq5fU42MDP4exi5FjGz9Kywe4emurwzwXuZyfxxrCJCBIkhYsC9h7/NTiYncUqDpmOEdYqjO5MMJqKfX/reAT5dKI+sKPrJCUplkIKxsKycqbqdDl/DzWKDdZpZ9aLz8J1Q91+Nqhurb2RNVnMrIJH+qRu+OP8hhOlIbx+I1fQ3Zfq2vk8I708vZwMK0rowGxin9joauplaxSYuK6EvnwffYIUEEZpZRQTBGFFFBAPnnkk0+ecvlNOB9q1Yjb7otCLVhu9k5QQTlllFBCEYUU7r/GeeRTyE/Kui5YEQfRQrIYJ58XGGjDga0uMYXfpOUnu9zvNBIU45miiERGyDVZMepeijOvCFDIXnaTU+0nl1zyyaeQQooppZQyZaouZ9gTF/VoyO4xVSJoV64EJeSwi73kklvtGudRQAGFFFFC6f7MV+ZnEW4IVmeOrQwRX5UfeI3ba8nkthcs4UnpopmGro8s00lRyEO5x2kW5OxUBsb1RSTkjTXKyWIFi1jCWraxl2LKKI+Qa4i9p0Ndy4sRVqgI9rCWRSxmFZvZTRGlCudT6wTcEKwYzudTyaNbzhO0Vy4Yrcts5jaDNAyDpK4eTkiloeHyU4C/I9D/TcogQnE2Fpx4TwWbmMEPzCUzbDHbvHhhq0dYdkXQnRGWYCd/Mo2ZrCPXg9eAK44lgzlcmv1jN2OI40zXGx15tnGTQSrRBC6zObFsTBItmKfYvpoS189pxiqlcTTFxRGWO8GmS5jD+3zHJs8+7+QPp1oIvJEzL/pmRXoCrOQTPmOFq0mEq+OKYDXkCmZLb4QtjKEFh3vW/MhQzP2GOWOO5UTXzxdj4oa6jt0W4lW6SYAlyu2NXbVhOX0EK/iLl/na48kJOx88dqXYCxF0+lpYw+t84CCMYXhauZ/zOdpgyzqeq3cx3n/iQ4MtydzoSTg99UKfrWEP6JNtEv2ptYMlxm6znfs5h0kRmUv1Bp8ns4ROXgsFjOcMnvJcrlwTrEbcbvigzrSQSqhu8bOhj9l5DPHkjF2Un3x5zA/zFVintKlB17B/ohrxFxcxThoTti5Tu6ayNnI9o5UpP9zC797UwClcYbAlMp7YXmJkbu7CnQ5XqhvRwSS+0B9hXp4z2yR5Zq+wtsaYL/kXv9bKxeHgbiq4qkcNL0sYznseWq2q9821KxbD/xnYUWrX28ANjHp0OT08OmNzOii3zw3DYPwfypih3J4aYtBfr/ic62p59Fu7M3ru+2HZZRkjDbwRvcHF5efrDN663UJIp1Q36EuUdIphJWWuByDZRzJ9lbfFJmbRLmz932CSja6NibyGhz8YYyudq49oYogjjgQSSSKZlP0/8Xyo+PCJdIRVZ5gtzZGPUrcymjm2zhZFDDHEEU8iiSRVXuMGLOALRU3XBKuUSVLflniujUhWFy85lwnSR/Z7FtHPo3MO4CXFhHw5X3Fh2EIl/2IynutrO0Cue2zlbhM72wHiaUpLmtKQdNJJI41UUkkmiQTiiSOW6P3RvUqZrRAsOx+edeWTUN63MsaZLKQ5QDQNaUULGpFBGmk0IJUUUkgicf81jqkMSPRCeARrKdOl5cdxigcXMLI0YSTzJFajnUzxTLAOoxlbFNtnsMqzD9LqFPGZcjTh45iIL3wWvMTvpnsl0ZeTOIrONCIhIpHx7VFbPgm/5x3TfaLpxGCOpyfNSLb0/eHx4ucDfCVd0ZbAdfVufAX7xlgyV9mvuMkjj6h29FEK1hY+C5NgzWGmcntjl2NV2GEBE0z2iOcUruXoOnp31ga7cA7Pm2QK8tOPqzmNFiG1Vy1YLslxNt9Iy482SR9UV2nECGkYj1UW3uv2iDO9kh+FxfBeYerRdJitrH9uInjPxHrVlpeZxKlhkCuVz1TdniX82cTYnsAtfME1tAyxRWERrPmSyO4QzeV19A1mzpnSmbAyvvZs6ccJNFVuX8onYej3fD432eMUFxOc2WMTXyu3d+VdrrQR+VzYMKx7sTTHG8fR0ChnstJdKYn/8KjJHStH7WbuUu9+krpS9vTIjbI20JzzpeUzlR9uTujGUcrtgjctmpntU8Z4EzfgFh6MqUM1Z//JesXWRvyP42y1I6BMaVtb4mGFh43Kb4kobmeMTedhlUeXS46jOQZ+OWfZUti6grx3m5TLlJ0Qx3kmJsdlvOrx5PpP0mCNVTnBVuIqNaE+nmo32pG2cgEClCmjrNq58pEXHmsEi/EC5Yv5KEbZdvBRRyp2RbDWSCMxZthOCV436M5ASWmpZ1YsOIlDTPZ4y8Sl0xk7ecLEfpXAMNdn20K19BRKzRMHaMlw2zd9Hntc7psXn2/hsYstULwU/Fxu27FFmASGdKV3c6T/yD61xN/ZK2I5RfqGnK2MFOWE5gwz2WMn/2G7R2ev4Dl+NdmnP4MUW70wMgcfMUf57u9DJ9vn2hiR2K7BeBEPS42/xlEFGxV7t+IE22fKYY1JSxwT4E9p+SCSnB+8VnO09KNwjYcpzi409SH/lcc8Wtf1KS+ZfPZEc3ktCIqdo5xs7+hgWfZfJtP44SPSn5Llyoj+rR1EQ1tlsojaBcHKlsZGSjQMOFN/aC/1fNotzaTjDl34l8kegtd5xQNL1izuNg3QcmStCNZYpBTsDNvHLeA7l1vqjVtDOAgor3GKMjO1mm9NltW7cMUypTHF27icOaY2ksiRktJyafJ6txhhatQu5iEmujxntZhRpoGY47i+FizJgYCJH75dZkldhZ1htzWqeuHIB6l28LCfY2cLU5XbXZklXCN98/aod0ueZfSTzoUs9zB5fEf+z/SWzOY23nGxDfO52kLErZM427Neh0KM0uxv12xewCu2bJPeBEGO9CehXzkHmGPbKPG+csLEpTHpaumj0acOrc2yTzfpJ8Y6T20dwy14Ee1iDE+bpDq1hmAawy2syG/E7aR42GvrJCljkq2yGZ3tI4O1HGaE30AeDvxK5+BMmxM/C3jZdGzmgmDJPhWiw7SuLdK0oLWkdDu7PDxnQ+6hoeleOfybm5VzOVbI53kuNwmHvI9rbDpjuk+qMjzzfFsWxj95xIMwlPZHSpH2dI9W2gK38bONY+7kPguOz457Vyy1YKXS3rWLU5tJkfZzrySxrJucyPUW/nElvMm5TLad0CrAPK7kTksBro/j5ggZkIMf3VTpS+QAO5gY8pTEckYrfefD3+fIj9pUs9UB3gnZASSHe/nWwn6O77J86Q3d8KCwYEGU9B9X7PEyZD+jLXprL2AEI/g1ZJtCgDXcz1lMVi5GOUALHrY0kR0eP6w4E/+/9wwCIRkxhyuZ7Xq7D1yRunHMYHoqZwL/4tWQbKhZ3MoEC6Z6F4zuOVKTe5N6u+i5Jm0kZQGPR1jQiMcsLoEp4GPOYTifstPi3E0hf3InQ3ncYi8S+Lflz8HwPEwDlCbhndzOXItHKmESl3goV7UpzZf6mDW39lSmyg3wDBMsSpbgLy6zvLdjy3i+1LTb2KNkDLWPptJwyXs9P28fnuJqiwPvbD7hC7pxAoPoRXMSpDdnKXtYw0x+ZJ6JL0xVohjFCM97Gxr9aMtaxfZFDOcRzjTxFqpgMc8x2WRt2z+E04Ae7ryEwcdszZFKC2kOt7ONG0393jbxNuNDeME7FqxiaTiIjINijhAgnViJlciN+TkzzuBRbrM8H1nCIhbxMk3pQGfa04RkYvEToJRCstnMWv4mk/yQ2uBjOGND8B13/6GWHbE1JykFC1ZyJedwNf0MgszkMJ+P+bxGVC0fqYr063ZGS/ZGWLUh4mgMZ/GpcpF5Dg8xnes50WCKqIiVfM7HrKphU0yizNAQ4XeuK2VSE+bB8kEIycRIBCscqWN9jCCP+y2PAABKySRz/wJpPz58CFtRng5wIU+EsBjH3qxY6I+nn4v40GSUm8d7fEE/TuBw2tKAaATlFJHNBubwO0slXlftuILHXVz45M0sYTjWEgKcTG+TyCTl/MIsejKYAbQjlTiiEJSRTybz+J357AqS/3hu4yNWGfbNsWAFpG+cg+WDEGKllzA8GVSiGYXgQZuLrZ220c8w/hfi5Ep4RlhwFKczybRuDj/xE3GkkUIMgjKKKKDAYNwQxY30ZZyrra89IyyzYwZf56aMZJFpPswS5jGPGJJIrBSsQvIMZf90rlIkoXBBsNy8aHUReU/DFcwthptJYWwEMhvHcBWPhLgUJzyzhABx3MwvFkMplpBlyXXjNK5hgUJy5S1Rh0h2397kjSHfL916MZ8xzdKxy9hrya7biftJV6zkcGGWUN5N75am1DYqpOIUPgNsNCN5gy5h7nUD7ue/Ia8cDJ9gwZGMcfVtfCiPk6p8ERkJlvvXQ13P7lpCVb1oaT/S+TetbJ5NRjqP0huVHLsgWNHSQ4TD6Fw7kE86hGMB6gH8nMVHDA3jqLYLr3EPySHX83lwXYyPeJ1pZAvrdOR5eqAeE4V+/e1eD9WHkf2PJlVbYg36fTT/cW1BVhIPcoHJVXFBsOQ2nOywRriOJDnSGQ37MZfs0YeJ3OsgdIp14riQKTbjinphgTD2uErhcU535RydGb8/MGGM4oEJXXx8NsMIq+rZPSZKJ494w95dzlhXko6k8vD+9RuqmcBo54KVKO1olkdB5Gof26WCFfrowymNeJCPGeIgEpE5PrrzIm/ZjiTrV4Z0NHrQ1I+gKvdNC17mHMef5/15jxP3/56seBUZTTQZnz/a9ovNuNdRNrIB7UM125tmKBTRjOFBx6OsFjzHTfv/z1HKa+xYsFKkD+cWZUTC+oR8jZn9iIv2ieJEPuY1jrL9jlXTkrv4mqsdiLFfEZ44lj4GW6I5TNFndQTWNrzGjQ5GAPFcwYf0r/y7keGycx/tpOWptDQ8errt+GFtDbek2U7k210xRlRd5Thu5UXl+k01PgbyPldUjqtiFFelpXPBSpUefltYknpGnnKWSUrjFDeUtzTgCr5kPMe6+lHqoy238i2POl7SPoR0gy09FBFqTzd0nugiTQRSlcY8xau2gkn6OISXebmaEDWRhmwEaG2QhC2FswzPcLx0YZcVBtPYYMsA22lsBxrKUtPKEaacaIYzmdNsvSibcBefMKjKODSKQYZzv+eDcEi5GCYI+vGJ150euE6wWXSV9L6xWBLhdmWLyeI80Vj4JK0L7SdRHCWeFKtEhSvtKhHXSc8SK15R1CoXY6S1osUzFs/7t7hLtA7havhEe3GfWC850k8iQ1rjbhEwOPdmMUBao4WYZfs6lokbpcdME984+O88JvzSo94qyi3U3ivGiz4iKoR7K0MMF7Mkx94ijpTuf5LIyncsWEL8R3rwi0Sp80PXej4XcZK+9xI7It0wIUSxWCCeEkNFs5Buon8e2VTRT9wmpolsV1u1SQyVCM8oka+stUWcEVQrSlwnci2ft0IsFw+Jw0WiBYnuL8aJ1QYSXS6eEklBdc4U2xXn/k3yWksXbxhKnLXrOCTomAnicVHm4Jh7xGVBkuUT5yr7Vp1t4nUxRKSbXuMY0UXcLGaKEoPjTBNtgup0ETOFcEOwvhSxkiY1E/OdH7qWUyYul/47hjm6bdylUCwXk8RocYJoJ5JNpcsn4kUz0U8MF8+LmWKPo0fKiM1ijGhR+WBEiy7iaQvCs1XcJlpWqdVJjBN7Qz73LvGDuE8MFR1FqoiuIX9Joq04UYwVP4o9ymOUiHfEoZW1/aKJuFlsMTnvfHG+SKk8V7wYKD61NGpRsUmMEs0qr0isOFS8KYodHnO3eFC0q7xLokQbca/ICvEY+WK2eFqcL3qIhiK22qjWL+JFMzFA3CA+FpkmY/YZ4uQqL4YUcZaYLYQQ+T7h2P9gDSdIfYrv4TGnh67lLONUaUqvJ7kj0k2rgaCAbaxjDWvZyDZ2k0sRZQj2zVUlk05T2tCBznSiNWmeepKVsYSfWUEBafTmJDpamskrZyk/s5x80ujNYDrZNsAWsp0NbGALu8gjQDzptKQDHWllMTXdBr5jIYWk0J5jOMzC3Gw+vzGTLZTTmCM5wZV4caUs4hdWUkQjDmOwbYtYVSpYxc8sIYdUejBYaYpXUcZONrKBTLLIoZwY0mhGOzrSljRL/+9sfmMmm/HRlmMYuG99csH/A5SSc7ft+y7WAAAAJXRFWHRkYXRlOmNyZWF0ZQAyMDIzLTEwLTAyVDE3OjA5OjU2LTA0OjAwuUFWZwAAACV0RVh0ZGF0ZTptb2RpZnkAMjAyMy0xMC0wMlQxNzowOTo1Ni0wNDowMMgc7tsAAAAASUVORK5CYII=;" vertex="1" parent="1">
          <mxGeometry x="1020.45" y="307.5" width="159.42" height="55" as="geometry" />
        </mxCell>
        <mxCell id="bDEAGJGz-RoX0q3UjHod-28" value="" style="rounded=0;orthogonalLoop=1;jettySize=auto;html=1;endArrow=halfCircle;endFill=0;endSize=6;strokeWidth=2;sketch=0;exitX=0;exitY=0.5;exitDx=0;exitDy=0;" edge="1" target="bDEAGJGz-RoX0q3UjHod-30" parent="1" source="bDEAGJGz-RoX0q3UjHod-26">
          <mxGeometry relative="1" as="geometry">
            <mxPoint x="730" y="435" as="sourcePoint" />
          </mxGeometry>
        </mxCell>
        <mxCell id="bDEAGJGz-RoX0q3UjHod-31" value="" style="rounded=0;orthogonalLoop=1;jettySize=auto;html=1;endArrow=oval;endFill=0;sketch=0;sourcePerimeterSpacing=0;targetPerimeterSpacing=0;endSize=10;strokeWidth=2;" edge="1" parent="1" source="bDEAGJGz-RoX0q3UjHod-25" target="bDEAGJGz-RoX0q3UjHod-30">
          <mxGeometry relative="1" as="geometry">
            <mxPoint x="690" y="435" as="sourcePoint" />
            <mxPoint x="970" y="470" as="targetPoint" />
          </mxGeometry>
        </mxCell>
        <mxCell id="bDEAGJGz-RoX0q3UjHod-30" value="" style="ellipse;whiteSpace=wrap;html=1;align=center;aspect=fixed;fillColor=none;strokeColor=none;resizable=0;perimeter=centerPerimeter;rotatable=0;allowArrows=0;points=[];outlineConnect=1;" vertex="1" parent="1">
          <mxGeometry x="970" y="470" width="10" height="10" as="geometry" />
        </mxCell>
        <mxCell id="bDEAGJGz-RoX0q3UjHod-35" value="" style="rounded=0;orthogonalLoop=1;jettySize=auto;html=1;endArrow=oval;endFill=0;sketch=0;sourcePerimeterSpacing=0;targetPerimeterSpacing=0;endSize=10;strokeWidth=2;" edge="1" parent="1">
          <mxGeometry relative="1" as="geometry">
            <mxPoint x="920" y="334.76" as="sourcePoint" />
            <mxPoint x="975" y="334.76" as="targetPoint" />
          </mxGeometry>
        </mxCell>
        <mxCell id="bDEAGJGz-RoX0q3UjHod-36" value="" style="rounded=0;orthogonalLoop=1;jettySize=auto;html=1;endArrow=halfCircle;endFill=0;endSize=6;strokeWidth=2;sketch=0;exitX=0;exitY=0.5;exitDx=0;exitDy=0;" edge="1" parent="1">
          <mxGeometry relative="1" as="geometry">
            <mxPoint x="1020" y="334.76" as="sourcePoint" />
            <mxPoint x="975" y="334.76" as="targetPoint" />
          </mxGeometry>
        </mxCell>
        <mxCell id="bDEAGJGz-RoX0q3UjHod-40" value="Solve" style="text;align=center;fontStyle=1;verticalAlign=middle;spacingLeft=3;spacingRight=3;strokeColor=none;rotatable=0;points=[[0,0.5],[1,0.5]];portConstraint=eastwest;html=1;" vertex="1" parent="1">
          <mxGeometry x="360" y="322" width="40" height="26" as="geometry" />
        </mxCell>
        <mxCell id="bDEAGJGz-RoX0q3UjHod-43" value="" style="html=1;points=[[0,0,0,0,5],[0,1,0,0,-5],[1,0,0,0,5],[1,1,0,0,-5]];perimeter=orthogonalPerimeter;outlineConnect=0;targetShapes=umlLifeline;portConstraint=eastwest;newEdgeStyle={&quot;curved&quot;:0,&quot;rounded&quot;:0};strokeWidth=2;" vertex="1" parent="1">
          <mxGeometry x="450" y="455" width="20" height="40" as="geometry" />
        </mxCell>
        <mxCell id="bDEAGJGz-RoX0q3UjHod-44" value="" style="edgeStyle=orthogonalEdgeStyle;rounded=0;orthogonalLoop=1;jettySize=auto;html=1;curved=0;strokeWidth=2;endArrow=open;endFill=0;entryX=0;entryY=0.5;entryDx=0;entryDy=0;" edge="1" parent="1" source="bDEAGJGz-RoX0q3UjHod-43" target="bDEAGJGz-RoX0q3UjHod-22">
          <mxGeometry relative="1" as="geometry">
            <mxPoint x="470" y="410" as="sourcePoint" />
            <mxPoint x="500" y="410" as="targetPoint" />
            <Array as="points">
              <mxPoint x="480" y="475" />
              <mxPoint x="480" y="475" />
            </Array>
          </mxGeometry>
        </mxCell>
        <mxCell id="bDEAGJGz-RoX0q3UjHod-45" value="" style="rounded=0;orthogonalLoop=1;jettySize=auto;html=1;endArrow=oval;endFill=0;sketch=0;sourcePerimeterSpacing=0;targetPerimeterSpacing=0;endSize=10;strokeWidth=2;" edge="1" parent="1">
          <mxGeometry relative="1" as="geometry">
            <mxPoint x="450" y="475" as="sourcePoint" />
            <mxPoint x="410" y="475" as="targetPoint" />
          </mxGeometry>
        </mxCell>
        <mxCell id="bDEAGJGz-RoX0q3UjHod-46" value="Generate&lt;br&gt;Environment" style="text;align=center;fontStyle=1;verticalAlign=middle;spacingLeft=3;spacingRight=3;strokeColor=none;rotatable=0;points=[[0,0.5],[1,0.5]];portConstraint=eastwest;html=1;" vertex="1" parent="1">
          <mxGeometry x="340" y="462" width="40" height="26" as="geometry" />
        </mxCell>
        <mxCell id="bDEAGJGz-RoX0q3UjHod-50" style="edgeStyle=orthogonalEdgeStyle;rounded=0;orthogonalLoop=1;jettySize=auto;html=1;exitX=0.75;exitY=1;exitDx=0;exitDy=0;entryX=0.25;entryY=0;entryDx=0;entryDy=0;strokeWidth=2;endArrow=open;endFill=0;" edge="1" parent="1" source="bDEAGJGz-RoX0q3UjHod-16" target="bDEAGJGz-RoX0q3UjHod-20">
          <mxGeometry relative="1" as="geometry" />
        </mxCell>
      </root>
    </mxGraphModel>
  </diagram>
</mxfile>
